<svg xmlns="http://www.w3.org/2000/svg" viewBox="0 0 40 50"><defs><style>.cls-1{fill:#c2e088;}</style></defs><g id="Layer_2" data-name="Layer 2"><g id="Layer_1-2" data-name="Layer 1"><path class="cls-1" d="M2.5,47.5V35a7.21,7.21,0,0,1,7.2-7.2H30.3A7.21,7.21,0,0,1,37.5,35V47.5Z"/><path class="cls-1" d="M30.3,30.3A4.71,4.71,0,0,1,35,35V45H5V35a4.71,4.71,0,0,1,4.7-4.7H30.3m0-5H9.7A9.7,9.7,0,0,0,0,35V48.3A1.7,1.7,0,0,0,1.7,50H38.3A1.7,1.7,0,0,0,40,48.3V35a9.7,9.7,0,0,0-9.7-9.7Z"/><path class="cls-1" d="M20,5a5,5,0,0,1,5,5V20a5,5,0,0,1-10,0V10a5,5,0,0,1,5-5m0-5A10,10,0,0,0,10,10V20a10,10,0,0,0,20,0V10A10,10,0,0,0,20,0Z"/></g></g></svg>