<svg width="32" height="32" viewBox="0 0 32 32" fill="none" xmlns="http://www.w3.org/2000/svg">
<path d="M9.31151 19.2206L8.25451 23.1996C8.23351 23.3086 8.18651 23.3506 8.05651 23.3506H6.09851C5.96851 23.3506 5.94751 23.3036 5.96851 23.1526L9.75451 9.90759C9.81751 9.66759 9.86351 9.47559 9.88451 8.81359C9.88451 8.72459 9.92651 8.67859 9.99351 8.67859H12.7905C12.8795 8.67859 12.9205 8.70459 12.9415 8.81359L17.1865 23.1726C17.2075 23.2816 17.1865 23.3446 17.0775 23.3446H14.8795C14.7705 23.3446 14.7025 23.3086 14.6815 23.2196L13.5825 19.2146H9.31151V19.2206ZM13.0505 17.0536C12.6755 15.5796 11.7695 12.3456 11.4415 10.7876H11.4205C11.1345 12.3446 10.4155 14.9856 9.86351 17.0536H13.0505ZM20.1965 18.4186C20.2225 20.2256 21.0765 21.4346 23.1025 21.4346C23.8945 21.4346 24.5715 21.3306 25.2745 21.0176C25.3635 20.9756 25.4305 21.0016 25.4305 21.1116V22.7836C25.4305 22.9136 25.3885 22.9816 25.2955 23.0496C24.5925 23.3986 23.7175 23.5546 22.6185 23.5546C19.0975 23.5546 17.7795 20.9606 17.7795 18.0546C17.7795 14.9086 19.4045 12.3356 22.2695 12.3356C25.1705 12.3356 26.1805 14.7786 26.1805 16.7576C26.1805 17.3986 26.1335 17.9246 26.0715 18.1686C26.0455 18.2776 26.0035 18.3146 25.8945 18.3356C25.6285 18.3826 24.8375 18.4246 23.6705 18.4246H20.1965V18.4186ZM22.9055 16.5846C23.5875 16.5846 23.8275 16.5846 23.8955 16.5636C23.8955 16.4746 23.9165 16.3966 23.9165 16.3346C23.9165 15.6056 23.5625 14.2716 22.1765 14.2716C20.9005 14.2716 20.3485 15.3966 20.2185 16.5846H22.9055Z" fill="#C2E088"/>
<path fill-rule="evenodd" clip-rule="evenodd" d="M25.9244 2.26294H6.21729C4.00815 2.26294 2.21729 4.0538 2.21729 6.26294V25.9701C2.21729 28.1792 4.00815 29.9701 6.21729 29.9701H25.9244C28.1336 29.9701 29.9244 28.1792 29.9244 25.9701V6.26294C29.9244 4.0538 28.1336 2.26294 25.9244 2.26294ZM6.21729 0.262939C2.90358 0.262939 0.217285 2.94923 0.217285 6.26294V25.9701C0.217285 29.2838 2.90358 31.9701 6.21729 31.9701H25.9244C29.2381 31.9701 31.9244 29.2838 31.9244 25.9701V6.26294C31.9244 2.94923 29.2381 0.262939 25.9244 0.262939H6.21729Z" fill="#C2E088"/>
</svg>
