<svg width="32" height="32" viewBox="0 0 32 32" fill="none" xmlns="http://www.w3.org/2000/svg">
<path d="M10.9597 19.5181L9.90275 23.5131C9.88175 23.6281 9.83975 23.6481 9.70975 23.6481H7.75175C7.61675 23.6481 7.59575 23.6061 7.61675 23.4551L11.4027 10.1951C11.4707 9.95507 11.5117 9.74207 11.5327 9.08007C11.5327 8.99107 11.5797 8.95007 11.6477 8.95007H14.4397C14.5287 8.95007 14.5747 8.97107 14.5957 9.08007L18.8407 23.4761C18.8667 23.5851 18.8407 23.6481 18.7317 23.6481H16.5337C16.4187 23.6481 16.3567 23.6221 16.3357 23.5331L15.2317 19.5171H10.9557L10.9597 19.5181ZM14.6787 17.3511C14.3037 15.8771 13.4237 12.6481 13.0957 11.0851H13.0697C12.7887 12.6421 12.0797 15.2831 11.5337 17.3511H14.6787ZM20.6787 9.94007C20.6787 9.08107 21.2727 8.57507 22.0437 8.57507C22.8567 8.57507 23.4087 9.12707 23.4087 9.94007C23.4087 10.8201 22.8357 11.3051 22.0177 11.3051C21.2207 11.3051 20.6737 10.8211 20.6737 9.94007H20.6787ZM20.8297 12.9711C20.8297 12.8671 20.8717 12.8251 20.9807 12.8251H23.0747C23.1947 12.8251 23.2357 12.8671 23.2357 12.9811V23.5071C23.2357 23.6161 23.2147 23.6581 23.0797 23.6581H21.0167C20.8817 23.6581 20.8397 23.5951 20.8397 23.4861V12.9701L20.8297 12.9711Z" fill="#C2E088"/>
<path fill-rule="evenodd" clip-rule="evenodd" d="M10.9597 19.5181L10.9557 19.5171H15.2317L16.3357 23.5331C16.3567 23.6221 16.4187 23.6481 16.5337 23.6481H18.7317C18.8407 23.6481 18.8667 23.5851 18.8407 23.4761L14.5957 9.08007C14.5747 8.97107 14.5287 8.95007 14.4397 8.95007H11.6477C11.5797 8.95007 11.5327 8.99107 11.5327 9.08007C11.5117 9.74207 11.4707 9.95507 11.4027 10.1951L7.61675 23.4551C7.59575 23.6061 7.61675 23.6481 7.75175 23.6481H9.70975C9.83975 23.6481 9.88175 23.6281 9.90275 23.5131L10.9597 19.5181ZM8.88713 22.6481L11.5232 13.4155C11.264 14.459 10.9645 15.5918 10.6886 16.6351C10.6475 16.7908 10.6068 16.9446 10.5669 17.0958L10.2355 18.3511H15.965L15.6479 17.1045C15.5392 16.6772 15.3922 16.1176 15.2299 15.4999C14.8172 13.929 14.3058 11.9823 14.0744 10.8797L14.0512 10.769L17.554 22.6481H17.1296L15.9939 18.5171H10.9557L10.8364 19.4854L9.99301 19.2623L9.0972 22.6481H8.88713ZM8.91913 23.3328C8.91936 23.3314 8.91989 23.3283 8.92083 23.3235L8.91913 23.3328ZM9.7094 22.6481C9.71461 22.6481 9.71447 22.6479 9.7094 22.6481ZM13.8495 10.0851L13.8097 9.95007H12.4737C12.4673 9.99709 12.4604 10.0419 12.453 10.0851H13.8495ZM12.5875 13.2753C12.3474 14.2603 12.0653 15.3389 11.798 16.3511C11.7512 16.5285 11.7049 16.7038 11.6593 16.8762C11.6167 17.0373 11.5747 17.1958 11.5337 17.3511H14.6787C14.6079 17.0727 14.5191 16.7316 14.4193 16.3511C14.3724 16.172 14.3231 15.9843 14.2721 15.7901C14.0649 15.0014 13.8301 14.1078 13.6176 13.2702C13.4054 12.4343 13.2153 11.6543 13.0968 11.09C13.0964 11.0883 13.0961 11.0867 13.0957 11.0851H13.0697C13.0694 11.087 13.0691 11.0889 13.0687 11.0907C12.9603 11.6904 12.7887 12.45 12.5875 13.2753ZM20.8397 23.4861C20.8397 23.5951 20.8817 23.6581 21.0167 23.6581H23.0797C23.2147 23.6581 23.2357 23.6161 23.2357 23.5071V12.9811C23.2357 12.8671 23.1947 12.8251 23.0747 12.8251H20.9807C20.8926 12.8251 20.8483 12.8525 20.8345 12.918C20.8313 12.9333 20.8298 12.9516 20.8297 12.9711C20.8297 12.9714 20.8297 12.9707 20.8297 12.9711L20.8397 12.9701V23.4861ZM21.8397 13.8251V22.6581H22.2357V13.8251H21.8397ZM23.074 13.8251C23.0725 13.8251 23.0689 13.8252 23.0634 13.8251L23.074 13.8251ZM22.2357 12.9896C22.2357 12.9863 22.2357 12.9838 22.2357 12.9823L22.2357 12.9811V12.9896ZM20.6787 9.94007H20.6737C20.6737 9.98895 20.6754 10.0366 20.6787 10.083C20.7048 10.4473 20.8313 10.7353 21.0339 10.9401C21.2709 11.1796 21.6119 11.3051 22.0177 11.3051C22.8357 11.3051 23.4087 10.8201 23.4087 9.94007C23.4087 9.12707 22.8567 8.57507 22.0437 8.57507C21.2727 8.57507 20.6787 9.08107 20.6787 9.94007ZM21.6787 10.0421C21.6941 10.1873 21.7399 10.232 21.7458 10.2378C21.7565 10.2482 21.8206 10.3051 22.0177 10.3051C22.2325 10.3051 22.3143 10.2436 22.3343 10.2247C22.3455 10.2141 22.4087 10.1545 22.4087 9.94007C22.4087 9.76543 22.3538 9.68956 22.324 9.65981C22.2943 9.63005 22.2184 9.57507 22.0437 9.57507C21.8768 9.57507 21.7954 9.62746 21.7628 9.65861C21.7374 9.68288 21.6787 9.75192 21.6787 9.94007V10.0421Z" fill="#C2E088"/>
<path fill-rule="evenodd" clip-rule="evenodd" d="M25.7498 2.26294H6.0426C3.83346 2.26294 2.0426 4.0538 2.0426 6.26294V25.9701C2.0426 28.1792 3.83346 29.9701 6.0426 29.9701H25.7498C27.9589 29.9701 29.7498 28.1792 29.7498 25.9701V6.26294C29.7498 4.0538 27.9589 2.26294 25.7498 2.26294ZM6.0426 0.262939C2.72889 0.262939 0.0426025 2.94923 0.0426025 6.26294V25.9701C0.0426025 29.2838 2.72889 31.9701 6.0426 31.9701H25.7498C29.0635 31.9701 31.7498 29.2838 31.7498 25.9701V6.26294C31.7498 2.94923 29.0635 0.262939 25.7498 0.262939H6.0426Z" fill="#C2E088"/>
</svg>
