<svg width="41" height="43" viewBox="0 0 41 43" fill="none" xmlns="http://www.w3.org/2000/svg">
<path fill-rule="evenodd" clip-rule="evenodd" d="M31.3249 35.3223C31.3249 35.3223 35.7513 23.0626 29.1615 14.4415C22.5716 5.82047 9.57993 6.87504 9.57993 6.87504C9.57993 6.87504 4.91229 18.9911 11.6604 27.8192C18.4086 36.6473 31.3249 35.3223 31.3249 35.3223ZM15.3719 12.0681C14.8688 11.4099 13.9274 11.2842 13.2693 11.7873C12.6111 12.2904 12.4854 13.2318 12.9885 13.89L17.4539 19.7317L12.7395 19.1022C11.9184 18.9925 11.1638 19.5693 11.0542 20.3904C10.9445 21.2115 11.5213 21.9661 12.3424 22.0758L20.0304 23.1024L23.4753 27.6091L18.7609 26.9795C17.9398 26.8699 17.1852 27.4466 17.0756 28.2678C16.9659 29.0889 17.5427 29.8435 18.3638 29.9531L26.0518 30.9798L26.6511 31.7638C27.1542 32.422 28.0956 32.5477 28.7538 32.0446C29.412 31.5415 29.5377 30.6001 29.0346 29.9419L28.4352 29.1578L29.4617 21.47C29.5714 20.6488 28.9946 19.8943 28.1734 19.7846C27.3523 19.675 26.5978 20.2518 26.4881 21.0729L25.8587 25.7871L22.4138 21.2804L23.4403 13.5926C23.5499 12.7714 22.9732 12.0169 22.152 11.9073C21.3309 11.7976 20.5763 12.3744 20.4667 13.1955L19.8372 17.9097L15.3719 12.0681Z" fill="url(#paint0_linear_396_247)"/>
<defs>
<linearGradient id="paint0_linear_396_247" x1="9.53848" y1="6.90673" x2="31.2834" y2="35.354" gradientUnits="userSpaceOnUse">
<stop offset="0.411458" stop-color="#C2E088"/>
<stop offset="1" stop-color="#7ADB89"/>
</linearGradient>
</defs>
</svg>
