<svg xmlns="http://www.w3.org/2000/svg" viewBox="0 0 40 49.29"><defs><style>.cls-1{fill:#c2e088;}</style></defs><g id="Layer_2" data-name="Layer 2"><g id="Layer_1-2" data-name="Layer 1"><path class="cls-1" d="M22,.67a3.36,3.36,0,0,0-4,0L1.1,13.34A2.75,2.75,0,0,0,0,15.53v32a1.72,1.72,0,0,0,1.72,1.72H38.28A1.72,1.72,0,0,0,40,47.57v-32a2.75,2.75,0,0,0-1.1-2.19ZM20,5.41,35,16.79,20,28.16,5,16.79ZM35,25V44.29H5V23.16L18,32.9a3.35,3.35,0,0,0,4,0l13-9.74Z"/><polygon class="cls-1" points="3.83 21.55 20 30.05 35.78 21.55 35.78 46.36 3.83 46.36 3.83 21.55"/></g></g></svg>