<svg width="30" height="29" viewBox="0 0 30 29" fill="none" xmlns="http://www.w3.org/2000/svg">
<path d="M12.6975 0.0301514V15.001L9.43317 11.7366C8.56879 10.8722 7.16742 10.8722 6.30304 11.7366C5.43869 12.601 5.43869 14.0023 6.30304 14.8667L13.3458 21.9094C14.2101 22.7738 15.6115 22.7738 16.4759 21.9094L23.5186 14.8667C24.383 14.0023 24.383 12.601 23.5186 11.7366C22.6543 10.8722 21.2529 10.8722 20.3885 11.7366L17.1241 15.001V0.0301514H24.0883C26.8497 0.0301514 29.0883 2.26868 29.0883 5.03015V23.3851C29.0883 26.1466 26.8497 28.3851 24.0883 28.3851H5.73328C2.97186 28.3851 0.733276 26.1466 0.733276 23.3851V5.03015C0.733276 2.26868 2.97186 0.0301514 5.73328 0.0301514H12.6975Z" fill="#CCCCCC"/>
</svg>
