<svg width="32" height="24" viewBox="0 0 32 24" fill="none" xmlns="http://www.w3.org/2000/svg">
<path d="M27.0362 4.83715C27.5391 5.34008 27.2648 5.85825 26.9905 6.11733L20.803 11.7867L26.7466 17.9742C26.9295 18.1876 27.0514 18.5229 26.8381 18.7515C26.6399 18.9953 26.1827 18.9801 25.9846 18.8277L19.3247 13.1431L16.0633 16.1149L12.8171 13.1431L6.15712 18.8277C5.959 18.9801 5.50179 18.9953 5.30367 18.7515C5.09031 18.5229 5.21223 18.1876 5.39511 17.9742L11.3388 11.7867L5.15127 6.11733C4.87694 5.85825 4.60262 5.34008 5.10555 4.83715C5.60847 4.33423 6.12664 4.57807 6.55336 4.94384L16.0633 12.6249L25.5884 4.94384C26.0151 4.57807 26.5333 4.33423 27.0362 4.83715Z" fill="#C2E088"/>
<path fill-rule="evenodd" clip-rule="evenodd" d="M25.9735 2.08228H6.16826C3.9862 2.08228 2.21729 3.85119 2.21729 6.03326V17.4578C2.21729 19.6399 3.9862 21.4088 6.16826 21.4088H25.9735C28.1555 21.4088 29.9244 19.6399 29.9244 17.4578V6.03325C29.9244 3.85119 28.1555 2.08228 25.9735 2.08228ZM6.16826 0.0822754C2.88163 0.0822754 0.217285 2.74662 0.217285 6.03326V17.4578C0.217285 20.7444 2.88163 23.4088 6.16826 23.4088H25.9735C29.2601 23.4088 31.9244 20.7444 31.9244 17.4578V6.03325C31.9244 2.74662 29.2601 0.0822754 25.9735 0.0822754H6.16826Z" fill="#C2E088"/>
</svg>
