<svg width="101" height="101" viewBox="0 0 101 101" fill="none" xmlns="http://www.w3.org/2000/svg">
<rect x="2.40002" y="1.72083" width="96.7817" height="96.7817" rx="8.5" stroke="white" stroke-width="3"/>
<path d="M17.3562 81.3819V49.2458C17.3562 48.1413 18.2516 47.2458 19.3562 47.2458H82.2254C83.33 47.2458 84.2254 48.1413 84.2254 49.2459V81.3819C84.2254 82.4864 83.33 83.3819 82.2254 83.3819H19.3562C18.2516 83.3819 17.3562 82.4864 17.3562 81.3819Z" stroke="white" stroke-width="3" stroke-linejoin="round"/>
<path d="M25.6604 47.2459V25.7053C25.6604 22.9439 27.899 20.7053 30.6604 20.7053H70.8262C73.5876 20.7053 75.8262 22.9439 75.8262 25.7053V47.2459H25.6604Z" stroke="white" stroke-width="3" stroke-linejoin="round"/>
<path d="M25.5578 39.0443L19.0633 45.5387C18.4333 46.1687 18.8795 47.2458 19.7704 47.2458H81.9063C82.7972 47.2458 83.2434 46.1687 82.6134 45.5387L76.119 39.0443M44.0301 20.5719L47.3028 17.2992C49.2555 15.3466 52.4213 15.3466 54.3739 17.2992L57.6466 20.5719" stroke="white" stroke-width="3" stroke-linejoin="round"/>
<rect x="67.7292" y="51.9728" width="11.9137" height="9.98839" rx="2" fill="white"/>
<path d="M28.498 62.0729L32.1896 58.3813C32.9707 57.6002 34.237 57.6002 35.0181 58.3813L38.1645 61.5277C38.9456 62.3088 40.2119 62.3088 40.993 61.5277L44.1394 58.3813C44.9205 57.6002 46.1868 57.6002 46.9679 58.3813L50.1144 61.5277C50.8954 62.3088 52.1617 62.3088 52.9428 61.5277L56.4171 58.0534" stroke="white" stroke-width="4" stroke-linecap="round"/>
<path d="M28.498 73.1442L32.1896 69.4526C32.9707 68.6715 34.237 68.6715 35.0181 69.4525L38.1645 72.599C38.9456 73.3801 40.2119 73.3801 40.993 72.599L44.1394 69.4525C44.9205 68.6715 46.1868 68.6715 46.9679 69.4525L50.1144 72.599C50.8954 73.3801 52.1617 73.3801 52.9428 72.599L56.4171 69.1247" stroke="white" stroke-width="4" stroke-linecap="round"/>
<circle cx="38.4262" cy="33.6208" r="6.43827" fill="white"/>
<path d="M50.8815 30.3114H64.48" stroke="white" stroke-width="4" stroke-linecap="round"/>
<path d="M50.8815 37.0505H59.6664" stroke="white" stroke-width="4" stroke-linecap="round"/>
</svg>
