<svg width="33" height="32" viewBox="0 0 33 32" fill="none" xmlns="http://www.w3.org/2000/svg">
<path fill-rule="evenodd" clip-rule="evenodd" d="M12.8615 5.06006C10.6069 5.06006 8.79364 6.95164 8.79364 9.26889C8.79364 10.6777 9.4644 11.9289 10.4954 12.6927C9.96404 13.0908 9.53332 13.6079 9.2378 14.2025C8.94227 14.797 8.79015 15.4526 8.79364 16.1165C8.79364 17.5262 9.4644 18.7765 10.4954 19.5403C9.96404 19.9385 9.53332 20.4555 9.2378 21.0501C8.94227 21.6447 8.79015 22.3002 8.79364 22.9642C8.79364 25.2814 10.6069 27.173 12.8615 27.173C15.1152 27.173 16.9294 25.2814 16.9294 22.9642V19.4058C17.6419 19.9999 18.54 20.3256 19.4677 20.3263C21.7223 20.3254 23.5356 18.4338 23.5356 16.1165C23.5393 15.4525 23.3873 14.7969 23.0917 14.2023C22.7962 13.6077 22.3654 13.0907 21.8338 12.6927C22.3652 12.2946 22.7959 11.7775 23.0914 11.183C23.387 10.5884 23.5391 9.93285 23.5356 9.26889C23.5356 6.95164 21.7223 5.06006 19.4677 5.06006H12.8615ZM10.4014 9.26016C10.4014 7.79426 11.5457 6.62043 12.9407 6.62043H15.4791V11.8999H12.9407C11.5457 11.8999 10.4014 10.7251 10.4014 9.26016ZM19.5469 11.899H17.0085V6.61951H19.5469C20.9428 6.61951 22.0862 7.79426 22.0862 9.26016C22.0862 10.7251 20.9428 11.899 19.5469 11.899ZM10.4023 16.1078C10.4023 14.6428 11.5466 13.4681 12.9416 13.4681H15.48V18.7475H12.9407C11.5448 18.7475 10.4023 17.5728 10.4023 16.1078ZM10.4023 22.9554C10.4023 21.4905 11.5466 20.3166 12.9416 20.3166H15.48V22.9554C15.48 24.4213 14.3375 25.5952 12.9416 25.5952C11.5466 25.5952 10.4023 24.4213 10.4023 22.9554ZM16.7977 16.1074C16.7977 14.6424 17.9421 13.4677 19.337 13.4677C20.7329 13.4677 21.8763 14.6415 21.8763 16.1074C21.8763 17.5724 20.7329 18.7471 19.337 18.7471C17.9421 18.7471 16.7977 17.5733 16.7977 16.1074Z" fill="#C2E088"/>
<path fill-rule="evenodd" clip-rule="evenodd" d="M26.0182 2.26294H6.31104C4.1019 2.26294 2.31104 4.0538 2.31104 6.26294V25.9701C2.31104 28.1792 4.1019 29.9701 6.31104 29.9701H26.0182C28.2273 29.9701 30.0182 28.1792 30.0182 25.9701V6.26294C30.0182 4.0538 28.2273 2.26294 26.0182 2.26294ZM6.31104 0.262939C2.99733 0.262939 0.311035 2.94923 0.311035 6.26294V25.9701C0.311035 29.2838 2.99733 31.9701 6.31104 31.9701H26.0182C29.3319 31.9701 32.0182 29.2838 32.0182 25.9701V6.26294C32.0182 2.94923 29.3319 0.262939 26.0182 0.262939H6.31104Z" fill="#C2E088"/>
</svg>
