<svg width="404" height="203" viewBox="0 0 404 203" fill="none" xmlns="http://www.w3.org/2000/svg">
<path d="M101 55.6806C117.222 55.6806 122.602 44.0713 122.602 44.0713L171.135 72.6979L153.482 101.325L136.783 89.3968L142.031 161.44H101H59.9685L65.2167 89.3968L48.5179 101.325L30.8648 72.6979L79.3977 44.0713C79.3977 44.0713 84.7783 55.6806 101 55.6806Z" stroke="white" stroke-width="4" stroke-linecap="round" stroke-linejoin="round"/>
<path d="M84.525 130.024C80.1619 123.575 113.549 79.1851 113.549 79.1851" stroke="white" stroke-width="4" stroke-linecap="round" stroke-linejoin="round"/>
<path d="M87.9773 91.3543C93.4248 83.1638 111.914 79.8064 115.2 75.5307C116.499 80.805 119.083 90.2156 113.669 99.6804C108.254 109.145 88.7583 116.952 88.7583 116.952C88.7583 116.952 82.5299 99.5448 87.9773 91.3543Z" stroke="white" stroke-width="4" stroke-linecap="round" stroke-linejoin="round"/>
<path d="M96.4761 102.518L93.4409 96.2581" stroke="white" stroke-width="4" stroke-linecap="round" stroke-linejoin="round"/>
<path d="M101.876 94.7402L99.8906 90.3772" stroke="white" stroke-width="4" stroke-linecap="round" stroke-linejoin="round"/>
<circle cx="48.2044" cy="41.4043" r="4.14409" fill="white"/>
<circle cx="161.314" cy="120.861" r="3.83201" fill="white"/>
<path d="M156.08 25.8872V29.312" stroke="white" stroke-width="4" stroke-linecap="round" stroke-linejoin="round"/>
<path d="M156.08 39.106V42.5307" stroke="white" stroke-width="4" stroke-linecap="round" stroke-linejoin="round"/>
<path d="M147.759 34.2092L151.183 34.2092" stroke="white" stroke-width="4" stroke-linecap="round" stroke-linejoin="round"/>
<path d="M160.977 34.2092L164.402 34.2092" stroke="white" stroke-width="4" stroke-linecap="round" stroke-linejoin="round"/>
<path d="M101 55.6806C117.222 55.6806 122.602 44.0713 122.602 44.0713L171.135 72.6979L153.482 101.325L136.783 89.3968L142.031 161.44H101H59.9685L65.2167 89.3968L48.5179 101.325L30.8648 72.6979L79.3977 44.0713C79.3977 44.0713 84.7783 55.6806 101 55.6806Z" stroke="white" stroke-width="4" stroke-linecap="round" stroke-linejoin="round"/>
<path d="M84.525 130.024C80.1619 123.575 113.549 79.1851 113.549 79.1851" stroke="white" stroke-width="4" stroke-linecap="round" stroke-linejoin="round"/>
<path d="M87.9773 91.3543C93.4248 83.1638 111.914 79.8064 115.2 75.5307C116.499 80.805 119.083 90.2156 113.669 99.6804C108.254 109.145 88.7583 116.952 88.7583 116.952C88.7583 116.952 82.5299 99.5448 87.9773 91.3543Z" stroke="white" stroke-width="4" stroke-linecap="round" stroke-linejoin="round"/>
<path d="M96.4761 102.518L93.4409 96.2581" stroke="white" stroke-width="4" stroke-linecap="round" stroke-linejoin="round"/>
<path d="M101.876 94.7402L99.8906 90.3772" stroke="white" stroke-width="4" stroke-linecap="round" stroke-linejoin="round"/>
<circle cx="48.2044" cy="41.4043" r="4.14409" fill="white"/>
<circle cx="161.314" cy="120.861" r="3.83201" fill="white"/>
<path d="M156.08 25.8872V29.312" stroke="white" stroke-width="4" stroke-linecap="round" stroke-linejoin="round"/>
<path d="M156.08 39.106V42.5307" stroke="white" stroke-width="4" stroke-linecap="round" stroke-linejoin="round"/>
<path d="M147.759 34.2092L151.183 34.2092" stroke="white" stroke-width="4" stroke-linecap="round" stroke-linejoin="round"/>
<path d="M160.977 34.2092L164.402 34.2092" stroke="white" stroke-width="4" stroke-linecap="round" stroke-linejoin="round"/>
<path d="M291.743 89.6081C298.306 82.2814 317.086 81.6043 320.949 77.8427C321.481 83.2487 322.691 92.9321 315.978 101.525C309.265 110.117 288.853 115.054 288.853 115.054C288.853 115.054 285.179 96.9348 291.743 89.6081Z" fill="#171717" stroke="white" stroke-width="4" stroke-linecap="round" stroke-linejoin="round"/>
<path d="M282.793 127.386C279.397 120.379 318.793 81.2234 318.793 81.2234" stroke="white" stroke-width="4" stroke-linecap="round" stroke-linejoin="round"/>
<path d="M298.557 101.873L296.449 95.2434" stroke="white" stroke-width="4" stroke-linecap="round" stroke-linejoin="round"/>
<path d="M305.014 94.9481L303.673 90.3459" stroke="white" stroke-width="4" stroke-linecap="round" stroke-linejoin="round"/>
<path d="M303 55.6806C319.222 55.6806 324.602 44.0713 324.602 44.0713L373.135 72.6979L355.482 99.3245L338.783 87.3968L344.031 158.44H303H261.968L267.217 87.3968L250.518 99.3245L232.865 72.6979L281.398 44.0713C281.398 44.0713 286.778 55.6806 303 55.6806Z" stroke="white" stroke-width="4" stroke-linecap="round" stroke-linejoin="round"/>
<path d="M249.518 108.962L231.865 82.3358L236.333 79.1045L250.614 98.892L267.103 87.7937L266.217 97.0346L249.518 108.962Z" fill="#171717" stroke="white" stroke-width="4" stroke-linecap="round" stroke-linejoin="round"/>
<path d="M356.482 108.962L374.135 82.3358L369.667 79.1045L355.386 98.892L338.897 87.7937L339.783 97.0346L356.482 108.962Z" fill="#171717" stroke="white" stroke-width="4" stroke-linecap="round" stroke-linejoin="round"/>
<circle cx="358.08" cy="34.2093" r="4.14409" fill="white"/>
<path d="M250.204 33.0825V36.5073" stroke="white" stroke-width="4" stroke-linecap="round" stroke-linejoin="round"/>
<path d="M250.204 46.3013V49.726" stroke="white" stroke-width="4" stroke-linecap="round" stroke-linejoin="round"/>
<path d="M241.883 41.4045L245.307 41.4045" stroke="white" stroke-width="4" stroke-linecap="round" stroke-linejoin="round"/>
<path d="M255.101 41.4045L258.526 41.4045" stroke="white" stroke-width="4" stroke-linecap="round" stroke-linejoin="round"/>
<path d="M363.314 114.768V117.734" stroke="white" stroke-width="4" stroke-linecap="round" stroke-linejoin="round"/>
<path d="M363.314 126.217V129.183" stroke="white" stroke-width="4" stroke-linecap="round" stroke-linejoin="round"/>
<path d="M354.992 121.976L358.417 121.976" stroke="white" stroke-width="4" stroke-linecap="round" stroke-linejoin="round"/>
<path d="M368.211 121.976L371.636 121.976" stroke="white" stroke-width="4" stroke-linecap="round" stroke-linejoin="round"/>
<path d="M260.878 167.23L261.878 158.215H344.164L345.05 167.23H260.878Z" fill="#171717" stroke="white" stroke-width="4" stroke-linecap="round" stroke-linejoin="round"/>
</svg>
