<?xml version="1.0" encoding="utf-8"?>
<!-- Generator: Adobe Illustrator 24.1.2, SVG Export Plug-In . SVG Version: 6.00 Build 0)  -->
<svg version="1.1" id="Layer_1" xmlns="http://www.w3.org/2000/svg" xmlns:xlink="http://www.w3.org/1999/xlink" x="0px" y="0px"
	 viewBox="0 0 1920 600" style="enable-background:new 0 0 1920 600;" xml:space="preserve">
<style type="text/css">
	.st0{opacity:0.1;fill:none;stroke:#FFFFFF;stroke-width:6;stroke-miterlimit:10;}
	.st1{opacity:0.1;fill:none;stroke:#FFFFFF;stroke-width:8;stroke-miterlimit:10;}
</style>
<path class="st0" d="M1288.2,93.4l55.3-17.1c52.5-16.2,108.3-18.1,161.7-5.5L1959.8,178"/>
<line class="st0" x1="1095" y1="153" x2="1200.6" y2="120.4"/>
<line class="st0" x1="723.2" y1="135.4" x2="805.8" y2="156.4"/>
<path class="st0" d="M-13.8,171.3l316.9-95.3C356,60,412.2,58.6,465.9,71.8l151.6,37.4"/>
<path class="st1" d="M340.2,290.9l77.3-175.2c5.1-11.5,13.8-20.9,24.9-26.8l0,0c16.5-8.8,36.2-8.8,52.7,0l0,0
	c11.1,5.9,19.8,15.3,24.9,26.8l77.3,175.2"/>
<path class="st1" d="M410.6,131.5l44.5,42.2c7.7,7.3,19.7,7.3,27.3,0l44.5-42.2"/>
<path class="st1" d="M536.7,290.9L614,115.7c5.1-11.5,13.8-20.9,24.9-26.8l0,0c16.5-8.8,36.2-8.8,52.7,0l0,0
	c11.1,5.9,19.8,15.3,24.9,26.8l77.3,175.2"/>
<path class="st1" d="M607.1,131.9l15.4,14.6c7.7,7.3,19.7,7.3,27.3,0l1.8-1.7c7.7-7.3,19.7-7.3,27.3,0l1.8,1.7
	c7.7,7.3,19.7,7.3,27.3,0l15.4-14.6"/>
<path class="st1" d="M1196.5,131.9l15.4,14.6c7.7,7.3,19.7,7.3,27.3,0l1.8-1.7c7.7-7.3,19.7-7.3,27.3,0l1.8,1.7
	c7.7,7.3,19.7,7.3,27.3,0l15.4-14.6"/>
<path class="st1" d="M733.2,290.9L852.8,69.1c12.6-23.3,46-23.3,58.6,0l33.9,62.7c5.1,9.5,17,13,26.5,7.9c2.6-1.4,4.8-3.3,6.5-5.7
	l26.1-36c10.8-14.9,31.6-18.2,46.5-7.4c3.2,2.3,6,5.2,8.2,8.5l127.7,191.9"/>
<path class="st1" d="M1126.2,290.9l77.3-175.2c5.1-11.5,13.8-20.9,24.9-26.8l0,0c16.5-8.8,36.2-8.8,52.7,0l0,0
	c11.1,5.9,19.8,15.3,24.9,26.8l77.3,175.2"/>
<path class="st1" d="M1322.7,290.9l77.3-175.2c5.1-11.5,13.8-20.9,24.9-26.8l0,0c16.5-8.8,36.2-8.8,52.7,0l0,0
	c11.1,5.9,19.8,15.3,24.9,26.8l77.3,175.2"/>
<path class="st1" d="M1393,131.5l44.5,42.2c7.7,7.3,19.7,7.3,27.3,0l44.5-42.2"/>
<path class="st1" d="M375.3,211.4c0,0-93.6-33.4-200.2-33.4s-215,33.4-215,33.4"/>
<path class="st1" d="M1959.8,211.4c0,0-93.6-33.4-200.2-33.4s-215,33.4-215,33.4"/>
<path class="st1" d="M843.4,86.6l23.5,27.9c7.1,8.4,19.6,9.5,28,2.4c0.7-0.6,1.4-1.2,2-1.9l24.5-27.3"/>
</svg>
