<svg width="33" height="33" viewBox="0 0 33 33" fill="none" xmlns="http://www.w3.org/2000/svg">
<path fill-rule="evenodd" clip-rule="evenodd" d="M0.311035 6.30554C0.311035 2.99183 2.99733 0.305542 6.31104 0.305542H26.0182C29.3319 0.305542 32.0182 2.99183 32.0182 6.30554V26.0127C32.0182 29.3264 29.3319 32.0127 26.0182 32.0127H6.31104C2.99733 32.0127 0.311035 29.3264 0.311035 26.0127V6.30554ZM8.50448 7.43115H6.86303V9.61976H4.67442V7.43115H3.03296V13.997H4.67442V11.2612H6.86303V13.997H8.50448V7.43115ZM17.2589 7.43115H22.1833C22.7852 7.43115 23.2776 7.92359 23.2776 8.52546V13.997H21.6361V9.06167H20.5418V12.9027H18.9004V9.07261H17.8061V13.997H16.1646V8.52546C16.1646 7.92359 16.6571 7.43115 17.2589 7.43115ZM9.59879 7.43115H15.0703V9.07261H13.1553V13.997H11.5138V9.07261H9.59879V7.43115ZM29.2963 12.3555V13.997H24.9191V7.43115H26.5605V12.3555H29.2963ZM14.7055 21.9689H12.5169V23.428C12.5169 24.2305 13.1735 24.8871 13.976 24.8871H18.3532C19.1557 24.8871 19.8123 24.2305 19.8123 23.428V21.2394C19.8123 20.4369 19.1557 19.7803 18.3532 19.7803H14.7055V18.3212H17.6237V19.0508H19.8123V17.5917C19.8123 16.7892 19.1557 16.1326 18.3532 16.1326H13.976C13.1735 16.1326 12.5169 16.7892 12.5169 17.5917V19.7803C12.5169 20.5828 13.1735 21.2394 13.976 21.2394H17.6237V22.6985H14.7055V21.9689ZM27.8372 24.8871H23.46C22.6575 24.8871 22.0009 24.2305 22.0009 23.428V21.9689H24.1895V22.6985H27.1077V21.2394H23.46C22.6575 21.2394 22.0009 20.5828 22.0009 19.7803V17.5917C22.0009 16.7892 22.6575 16.1326 23.46 16.1326H27.8372C28.6397 16.1326 29.2963 16.7892 29.2963 17.5917V19.0508H27.1077V18.3212H24.1895V19.7803H27.8372C28.6397 19.7803 29.2963 20.4369 29.2963 21.2394V23.428C29.2963 24.2305 28.6397 24.8871 27.8372 24.8871ZM8.86925 16.1326C9.67174 16.1326 10.3283 16.7892 10.3283 17.5917V19.0508H8.13971V18.3212H5.22157V22.6985H8.13971V21.9689H10.3283V23.428C10.3283 24.2305 9.67174 24.8871 8.86925 24.8871H4.49203C3.68954 24.8871 3.03296 24.2305 3.03296 23.428V17.5917C3.03296 16.7892 3.68954 16.1326 4.49203 16.1326H8.86925Z" fill="#C2E088"/>
</svg>
