<svg width="32" height="33" viewBox="0 0 32 33" fill="none" xmlns="http://www.w3.org/2000/svg">
<path d="M11.5747 23.2166C11.5747 23.3456 11.5547 23.3876 11.4037 23.3876H9.35069C9.22169 23.3876 9.17969 23.3266 9.17969 23.2166V8.89758C9.17969 8.76858 9.24069 8.72058 9.35069 8.72058H11.4237C11.5327 8.72058 11.5747 8.76858 11.5747 8.87758V23.2166ZM13.9407 18.0496C13.9407 14.8616 16.0397 12.3776 19.4087 12.3776C19.6897 12.3776 19.8477 12.3776 20.1127 12.3926V8.85658C20.1119 8.83909 20.1146 8.82163 20.1207 8.80522C20.1268 8.78882 20.1362 8.77381 20.1482 8.76111C20.1603 8.74841 20.1748 8.73828 20.1908 8.73131C20.2069 8.72435 20.2242 8.7207 20.2417 8.72058H22.4087C22.5237 8.72058 22.5447 8.76858 22.5447 8.83558V21.3106C22.5447 21.6796 22.5447 22.1436 22.6127 22.6496C22.6127 22.7376 22.5857 22.7586 22.4977 22.8056C21.4042 23.3259 20.2087 23.5965 18.9977 23.5976C16.0447 23.5976 13.9347 21.7696 13.9347 18.0506L13.9407 18.0496ZM20.1127 14.5536C19.9137 14.4656 19.6487 14.4186 19.3207 14.4186C17.6077 14.4186 16.4047 15.7356 16.4047 17.9386C16.4047 20.4496 17.6277 21.4596 19.1697 21.4596C19.4977 21.4596 19.8507 21.4186 20.1127 21.3036V14.5536Z" fill="#C2E088"/>
<path fill-rule="evenodd" clip-rule="evenodd" d="M14.9407 18.3723C14.9973 19.8664 15.4497 20.8779 16.0757 21.5215C16.7441 22.2087 17.7278 22.5974 18.9968 22.5976M14.9407 18.3723V18.0496C14.9407 16.674 15.3918 15.5094 16.1444 14.6982C16.8889 13.8958 17.984 13.3776 19.4087 13.3776C19.6881 13.3776 19.8217 13.3777 20.0562 13.391L21.1127 13.4508V9.72058H21.5447V21.3253C21.5447 21.5429 21.5447 21.815 21.5609 22.1204C20.7441 22.4344 19.875 22.5968 18.9968 22.5976M21.5447 8.84497V8.83558L21.5447 8.8375C21.5447 8.83938 21.5447 8.84188 21.5447 8.84497ZM20.2417 8.72058H22.4087C22.5237 8.72058 22.5447 8.76858 22.5447 8.83558V21.3106C22.5447 21.6796 22.5447 22.1436 22.6127 22.6496C22.6127 22.7376 22.5857 22.7586 22.4977 22.8056C21.4042 23.3259 20.2087 23.5965 18.9977 23.5976C16.0447 23.5976 13.9347 21.7696 13.9347 18.0506L13.9407 18.0496C13.9407 14.956 15.9172 12.5253 19.1127 12.3841C19.2102 12.3798 19.3089 12.3776 19.4087 12.3776C19.6897 12.3776 19.8477 12.3776 20.1127 12.3926V8.85658C20.1119 8.83909 20.1146 8.82163 20.1207 8.80522C20.1268 8.78882 20.1362 8.77381 20.1482 8.76111C20.1603 8.74841 20.1748 8.73828 20.1908 8.73131C20.2069 8.72435 20.2242 8.7207 20.2417 8.72058ZM21.1127 13.9024V21.9567L20.5146 22.2193C20.0655 22.4164 19.5497 22.4596 19.1697 22.4596C18.1734 22.4596 17.1841 22.126 16.4583 21.3014C15.7468 20.493 15.4047 19.3444 15.4047 17.9386C15.4047 16.6611 15.7543 15.5316 16.459 14.7041C17.1759 13.8622 18.1902 13.4186 19.3207 13.4186C19.7321 13.4186 20.148 13.4758 20.5171 13.639L21.1127 13.9024ZM10.5747 23.2166C10.5747 23.2232 10.5745 23.2219 10.5747 23.2146V23.2166ZM10.5747 22.3876V9.72058H10.1797V22.3876H10.5747ZM20.1127 14.5536C19.9137 14.4656 19.6487 14.4186 19.3207 14.4186C17.6077 14.4186 16.4047 15.7356 16.4047 17.9386C16.4047 20.4496 17.6277 21.4596 19.1697 21.4596C19.4977 21.4596 19.8507 21.4186 20.1127 21.3036V14.5536ZM11.4037 23.3876C11.5547 23.3876 11.5747 23.3456 11.5747 23.2166V8.87758C11.5747 8.76858 11.5327 8.72058 11.4237 8.72058H9.35069C9.24069 8.72058 9.17969 8.76858 9.17969 8.89758V23.2166C9.17969 23.3266 9.22169 23.3876 9.35069 23.3876H11.4037Z" fill="#C2E088"/>
<path fill-rule="evenodd" clip-rule="evenodd" d="M25.7498 2.30554H6.0426C3.83346 2.30554 2.0426 4.0964 2.0426 6.30554V26.0127C2.0426 28.2218 3.83346 30.0127 6.0426 30.0127H25.7498C27.9589 30.0127 29.7498 28.2218 29.7498 26.0127V6.30554C29.7498 4.0964 27.9589 2.30554 25.7498 2.30554ZM6.0426 0.305542C2.72889 0.305542 0.0426025 2.99183 0.0426025 6.30554V26.0127C0.0426025 29.3264 2.72889 32.0127 6.0426 32.0127H25.7498C29.0635 32.0127 31.7498 29.3264 31.7498 26.0127V6.30554C31.7498 2.99183 29.0635 0.305542 25.7498 0.305542H6.0426Z" fill="#C2E088"/>
</svg>
