<svg width="404" height="202" viewBox="0 0 404 202" fill="none" xmlns="http://www.w3.org/2000/svg">
<path d="M47.8896 187.955L53.7649 165.119" stroke="white" stroke-width="4" stroke-linecap="round"/>
<path d="M133.402 187.955L127.526 165.119" stroke="white" stroke-width="4" stroke-linecap="round"/>
<path d="M26.9353 30.5245L37.4423 30.5245V152.802H26.9353V30.5245Z" fill="#171717" stroke="white" stroke-width="4" stroke-linecap="round" stroke-linejoin="round"/>
<path d="M47.5387 152.802H37.4423V30.5245H147.715V94.4753M134.191 152.802H147.715V106.566" stroke="white" stroke-width="4" stroke-linecap="round" stroke-linejoin="round"/>
<path d="M133.402 145.884H47.642V164.637H133.402V145.884Z" fill="#171717" stroke="white" stroke-width="4" stroke-linecap="round" stroke-linejoin="round"/>
<path d="M83.7229 14.5717H94.4424L95.5079 30.5245H82.6574L83.7229 14.5717Z" stroke="white" stroke-width="4" stroke-linecap="round" stroke-linejoin="round"/>
<path d="M82.7483 116.978L67.5205 119.62" stroke="white" stroke-width="4" stroke-linecap="round"/>
<path d="M73.7242 107.48L61.7824 108.971" stroke="white" stroke-width="4" stroke-linecap="round"/>
<path d="M82.8427 116.888L86.2607 101.816" stroke="white" stroke-width="4" stroke-linecap="round"/>
<path d="M73.8186 107.39L75.9187 95.5403" stroke="white" stroke-width="4" stroke-linecap="round"/>
<path d="M87.9937 102.696C78.9843 92.8173 58.9389 91.9182 58.9389 91.9182C58.9389 91.9182 59.3749 112.577 68.414 121.299C77.453 130.02 95.5799 130.484 95.5799 130.484C95.5799 130.484 97.0031 112.575 87.9937 102.696Z" stroke="white" stroke-width="4" stroke-linecap="round" stroke-linejoin="round"/>
<path d="M95.1572 130.039L60.0552 93.0928" stroke="white" stroke-width="4" stroke-linecap="round"/>
<path d="M107.75 86.6576L122.107 90.2164" stroke="white" stroke-width="4" stroke-linecap="round"/>
<path d="M115.444 78.5601L126.66 80.8149" stroke="white" stroke-width="4" stroke-linecap="round"/>
<path d="M107.656 86.5679L103.367 72.4117" stroke="white" stroke-width="4" stroke-linecap="round"/>
<path d="M101.82 73.0962C109.472 64.6464 128.049 65.2931 128.049 65.2931C128.049 65.2931 129.164 84.3184 121.4 91.6986C113.635 99.0788 96.8109 98.1721 96.8109 98.1721C96.8109 98.1721 94.1685 81.546 101.82 73.0962Z" stroke="white" stroke-width="4" stroke-linecap="round" stroke-linejoin="round"/>
<path d="M97.1712 97.7924L127.097 66.2944" stroke="white" stroke-width="4" stroke-linecap="round"/>
<path d="M71.4935 73.0279C67.7855 64.9813 72.3805 55.5473 72.3805 55.5473C72.3805 55.5473 82.9107 59.434 86.0779 66.3071C89.2451 73.1802 84.7405 82.3692 84.7405 82.3692C84.7405 82.3692 75.2015 81.0744 71.4935 73.0279Z" stroke="white" stroke-width="4" stroke-linecap="round" stroke-linejoin="round"/>
<path d="M177.321 72.8698L133.574 106.187L138.789 114.01L181.088 77.2155L177.321 72.8698Z" stroke="white" stroke-width="4" stroke-linecap="round" stroke-linejoin="round"/>
<path d="M134.429 106.905C134.429 106.905 126.703 104.302 121.985 107.636C117.268 110.97 119.526 116.728 111.622 120.905C116.251 124.97 125.845 124.83 131.381 122.147C136.916 119.465 138.209 112.851 138.209 112.851" stroke="white" stroke-width="4" stroke-linecap="round" stroke-linejoin="round"/>
<path d="M249.884 187.955L255.759 165.119" stroke="white" stroke-width="4" stroke-linecap="round"/>
<path d="M335.396 187.955L329.521 165.119" stroke="white" stroke-width="4" stroke-linecap="round"/>
<path d="M226.129 29.4243L236.624 28.9315L242.359 151.074L231.864 151.567L226.129 29.4243Z" fill="#171717" stroke="white" stroke-width="4" stroke-linecap="round" stroke-linejoin="round"/>
<path d="M252.445 150.601L242.359 151.074L236.624 28.9315L346.776 23.7594L349.76 94.3463M335.084 147.107L352.511 145.902L350.875 106.236" stroke="white" stroke-width="4" stroke-linecap="round" stroke-linejoin="round"/>
<path d="M335.396 145.884H249.637V164.637H335.396V145.884Z" fill="#171717" stroke="white" stroke-width="4" stroke-linecap="round" stroke-linejoin="round"/>
<path d="M285.717 14.5717H296.437L297.502 26.3645H284.652L285.717 14.5717Z" stroke="white" stroke-width="4" stroke-linecap="round" stroke-linejoin="round"/>
<path d="M285.935 113.165L270.848 116.519" stroke="white" stroke-width="4" stroke-linecap="round"/>
<path d="M276.476 104.1L264.617 106.15" stroke="white" stroke-width="4" stroke-linecap="round"/>
<path d="M286.025 113.071L288.733 97.8545" stroke="white" stroke-width="4" stroke-linecap="round"/>
<path d="M276.566 104.006L278.108 92.071" stroke="white" stroke-width="4" stroke-linecap="round"/>
<path d="M290.505 98.6526C281.042 89.2072 260.977 89.2493 260.977 89.2493C260.977 89.2493 262.381 109.865 271.819 118.153C281.257 126.441 299.386 126.054 299.386 126.054C299.386 126.054 299.968 108.098 290.505 98.6526Z" stroke="white" stroke-width="4" stroke-linecap="round" stroke-linejoin="round"/>
<path d="M298.943 125.629L262.147 90.3702" stroke="white" stroke-width="4" stroke-linecap="round"/>
<path d="M309.488 81.7052L323.996 84.5868" stroke="white" stroke-width="4" stroke-linecap="round"/>
<path d="M316.793 73.2557L328.102 74.9821" stroke="white" stroke-width="4" stroke-linecap="round"/>
<path d="M309.389 81.62L304.441 67.6805" stroke="white" stroke-width="4" stroke-linecap="round"/>
<path d="M302.928 68.4368C310.175 59.6375 328.762 59.4121 328.762 59.4121C328.762 59.4121 330.768 78.3641 323.359 86.1004C315.949 93.8367 299.1 93.72 299.1 93.72C299.1 93.72 295.681 77.2362 302.928 68.4368Z" stroke="white" stroke-width="4" stroke-linecap="round" stroke-linejoin="round"/>
<path d="M299.442 93.3239L327.858 60.457" stroke="white" stroke-width="4" stroke-linecap="round"/>
<path d="M272.631 69.7909C268.55 61.9271 272.698 52.2879 272.698 52.2879C272.698 52.2879 283.398 55.6765 286.885 62.3935C290.371 69.1105 286.302 78.5007 286.302 78.5007C286.302 78.5007 276.713 77.6547 272.631 69.7909Z" stroke="white" stroke-width="4" stroke-linecap="round" stroke-linejoin="round"/>
<path d="M381.522 83.044L330.9 104.523L334.022 113.391L384.098 88.1854L381.522 83.044Z" stroke="white" stroke-width="4" stroke-linecap="round" stroke-linejoin="round"/>
<path d="M331.552 105.43C331.552 105.43 324.708 100.999 319.313 103.064C313.918 105.13 314.684 111.267 305.994 113.363C309.475 118.445 318.806 120.679 324.833 119.447C330.86 118.215 333.746 112.125 333.746 112.125" stroke="white" stroke-width="4" stroke-linecap="round" stroke-linejoin="round"/>
<path d="M366.46 74.3855L377.171 69.6835" stroke="white" stroke-width="4" stroke-linecap="round" stroke-linejoin="round"/>
<path d="M359.993 67.4562L367.27 58.2986" stroke="white" stroke-width="4" stroke-linecap="round" stroke-linejoin="round"/>
</svg>
