<svg width="101" height="101" viewBox="0 0 101 101" fill="none" xmlns="http://www.w3.org/2000/svg">
<rect x="2.26978" y="2.32434" width="96.7817" height="96.7817" rx="8.5" stroke="#C2E088" stroke-width="3"/>
<path d="M69.9579 35.2919C67.8098 35.2919 66.0752 33.5572 66.0752 31.4092C66.0752 29.2611 67.8098 27.5265 69.9579 27.5265C72.1059 27.5265 73.8406 29.2611 73.8406 31.4092C73.8412 31.9192 73.7412 32.4244 73.5463 32.8958C73.3514 33.3671 73.0655 33.7954 72.7048 34.1561C72.3441 34.5168 71.9159 34.8027 71.4445 34.9976C70.9731 35.1925 70.468 35.2925 69.9579 35.2919Z" stroke="#C2E088" stroke-width="3" stroke-linejoin="round"/>
<rect x="19.7585" y="19.8137" width="61.8041" height="61.8029" rx="8.5" stroke="#C2E088" stroke-width="3"/>
<circle cx="50.6606" cy="50.7152" r="10.6406" stroke="#C2E088" stroke-width="3"/>
<circle cx="50.6606" cy="50.7152" r="17.4668" stroke="#C2E088" stroke-width="3"/>
</svg>
