<svg width="101" height="101" viewBox="0 0 101 101" fill="none" xmlns="http://www.w3.org/2000/svg">
<rect x="2.26978" y="2.40649" width="96.7817" height="96.7817" rx="8.5" stroke="white" stroke-width="3"/>
<path fill-rule="evenodd" clip-rule="evenodd" d="M18.2585 28.3959C18.2585 22.873 22.7357 18.3959 28.2585 18.3959H73.0627C78.5855 18.3959 83.0627 22.873 83.0627 28.3959V73.1988C83.0627 78.7216 78.5855 83.1988 73.0627 83.1988H28.2586C22.7357 83.1988 18.2585 78.7216 18.2585 73.1988V28.3959ZM68.1274 50.7974C68.1274 60.444 60.3073 68.2642 50.6606 68.2642C41.014 68.2642 33.1938 60.444 33.1938 50.7974C33.1938 41.1507 41.014 33.3306 50.6606 33.3306C60.3073 33.3306 68.1274 41.1507 68.1274 50.7974ZM66.0752 31.4913C66.0752 33.6394 67.8098 35.374 69.9579 35.374C70.468 35.3747 70.9731 35.2747 71.4445 35.0798C71.9159 34.8849 72.3441 34.5989 72.7048 34.2383C73.0655 33.8776 73.3514 33.4493 73.5463 32.9779C73.7412 32.5066 73.8412 32.0014 73.8406 31.4913C73.8406 29.3433 72.1059 27.6086 69.9579 27.6086C67.8098 27.6086 66.0752 29.3433 66.0752 31.4913Z" fill="white"/>
<circle cx="50.6606" cy="50.7973" r="10.6406" fill="white"/>
</svg>
