<svg width="101" height="101" viewBox="0 0 101 101" fill="none" xmlns="http://www.w3.org/2000/svg">
<rect x="2.40002" y="2.05969" width="96.7817" height="96.7817" rx="8.5" stroke="#C2E088" stroke-width="3"/>
<path fill-rule="evenodd" clip-rule="evenodd" d="M18.3889 22.7956C18.3889 21.404 18.9417 20.0694 19.9257 19.0854C20.9097 18.1014 22.2443 17.5486 23.6359 17.5486H77.9403C78.63 17.5475 79.313 17.6824 79.9505 17.9456C80.5879 18.2088 81.1671 18.5952 81.655 19.0825C82.143 19.5699 82.5299 20.1487 82.7939 20.7859C83.0578 21.423 83.1934 22.106 83.193 22.7956V78.1C83.1938 78.7898 83.0585 79.4729 82.795 80.1104C82.5315 80.7478 82.1448 81.327 81.6572 81.8149C81.1696 82.3028 80.5906 82.6897 79.9533 82.9536C79.316 83.2175 78.6329 83.3531 77.9432 83.3527H23.6359C22.9466 83.3527 22.2641 83.2169 21.6273 82.953C20.9905 82.6892 20.412 82.3024 19.9247 81.8149C19.4375 81.3274 19.051 80.7486 18.7875 80.1117C18.524 79.4747 18.3885 78.7921 18.3889 78.1029V22.7956ZM44.2479 43.4941H52.7522V47.7648C53.9797 45.3097 57.1199 43.1001 61.8388 43.1001C70.8854 43.1001 73.0293 47.9903 73.0293 56.9627V73.583H63.8742V59.0067C63.8742 53.8967 62.6467 51.0135 59.5293 51.0135C55.2044 51.0135 53.4059 54.1223 53.4059 59.0067V73.583H44.2479V43.4941ZM28.5469 73.1919H37.7049V43.1001H28.5469V73.189V73.1919ZM39.0152 31.2856C39.0325 32.0697 38.8929 32.8494 38.6048 33.5788C38.3167 34.3083 37.8857 34.9728 37.3373 35.5335C36.7888 36.0942 36.1339 36.5396 35.411 36.8437C34.688 37.1479 33.9116 37.3045 33.1273 37.3045C32.343 37.3045 31.5666 37.1479 30.8437 36.8437C30.1207 36.5396 29.4658 36.0942 28.9174 35.5335C28.3689 34.9728 27.938 34.3083 27.6498 33.5788C27.3617 32.8494 27.2222 32.0697 27.2394 31.2856C27.2733 29.7464 27.9085 28.2818 29.009 27.2053C30.1095 26.1287 31.5878 25.5259 33.1273 25.5259C34.6668 25.5259 36.1451 26.1287 37.2456 27.2053C38.3461 28.2818 38.9813 29.7464 39.0152 31.2856Z" stroke="#C2E088" stroke-width="3" stroke-linejoin="round"/>
</svg>
