<svg width="101" height="101" viewBox="0 0 101 101" fill="none" xmlns="http://www.w3.org/2000/svg">
<rect x="2.40002" y="2.14185" width="96.7817" height="96.7817" rx="8.5" stroke="white" stroke-width="3"/>
<path fill-rule="evenodd" clip-rule="evenodd" d="M18.3889 22.8777C18.3889 21.4862 18.9417 20.1516 19.9257 19.1676C20.9097 18.1836 22.2443 17.6307 23.6359 17.6307H77.9403C78.63 17.6296 79.313 17.7645 79.9505 18.0277C80.5879 18.291 81.1671 18.6773 81.655 19.1647C82.143 19.6521 82.5299 20.2309 82.7939 20.868C83.0578 21.5052 83.1934 22.1881 83.193 22.8777V78.1822C83.1938 78.8719 83.0585 79.5551 82.795 80.1925C82.5315 80.8299 82.1448 81.4092 81.6572 81.897C81.1696 82.3849 80.5906 82.7719 79.9533 83.0357C79.316 83.2996 78.6329 83.4352 77.9432 83.4349H23.6359C22.9466 83.4349 22.2641 83.2991 21.6273 83.0352C20.9905 82.7713 20.412 82.3846 19.9247 81.897C19.4375 81.4095 19.051 80.8307 18.7875 80.1938C18.524 79.5569 18.3885 78.8743 18.3889 78.185V22.8777ZM44.2479 43.5762H52.7522V47.8469C53.9797 45.3919 57.1199 43.1823 61.8388 43.1823C70.8854 43.1823 73.0293 48.0724 73.0293 57.0449V73.6651H63.8742V59.0889C63.8742 53.9789 62.6467 51.0956 59.5293 51.0956C55.2044 51.0956 53.4059 54.2044 53.4059 59.0889V73.6651H44.2479V43.5762ZM28.5469 73.274H37.7049V43.1823H28.5469V73.2712V73.274ZM39.0152 31.3677C39.0325 32.1518 38.8929 32.9315 38.6048 33.661C38.3167 34.3904 37.8857 35.055 37.3373 35.6157C36.7888 36.1763 36.1339 36.6218 35.411 36.9259C34.688 37.23 33.9116 37.3867 33.1273 37.3867C32.343 37.3867 31.5666 37.23 30.8437 36.9259C30.1207 36.6218 29.4658 36.1763 28.9174 35.6157C28.3689 35.055 27.938 34.3904 27.6498 33.661C27.3617 32.9315 27.2222 32.1518 27.2394 31.3677C27.2733 29.8286 27.9085 28.3639 29.009 27.2874C30.1095 26.2109 31.5878 25.6081 33.1273 25.6081C34.6668 25.6081 36.1451 26.2109 37.2456 27.2874C38.3461 28.3639 38.9813 29.8286 39.0152 31.3677Z" fill="white"/>
</svg>
