<svg width="404" height="203" viewBox="0 0 404 203" fill="none" xmlns="http://www.w3.org/2000/svg">
<path d="M34.167 47.4928C24.4395 51.2992 19.8617 60.9814 19.8617 60.9814L34.167 91.6871L47.9355 60.9814C47.9355 60.9814 43.0487 51.7222 34.167 47.4928Z" fill="#171717" stroke="white" stroke-width="4" stroke-linejoin="round"/>
<path d="M79.4779 66.3202C68.0789 61.4349 60.4343 69.0794 58.0369 73.5124L68.6217 75.0051C76.99 74.1456 90.8769 71.2054 79.4779 66.3202Z" stroke="white" stroke-width="4" stroke-linejoin="round"/>
<path d="M115.054 66.9984C126.453 62.1131 133.804 72.8788 136.201 77.3117L125.91 75.6833C117.541 74.8239 103.655 71.8836 115.054 66.9984Z" stroke="white" stroke-width="4" stroke-linejoin="round"/>
<path d="M50.5534 78.5709C54.9992 73.2738 67.5797 73.2738 67.5797 73.2738L68.0778 82.864C68.0778 82.864 58.676 88.5097 50.5533 88.5097C42.4307 88.5097 46.1076 83.868 50.5534 78.5709Z" stroke="white" stroke-width="4" stroke-linejoin="round"/>
<path d="M135.773 78.5709C131.327 73.2738 118.747 73.2738 118.747 73.2738L118.249 82.864C118.249 82.864 127.651 88.5097 135.773 88.5097C143.896 88.5097 140.219 83.868 135.773 78.5709Z" stroke="white" stroke-width="4" stroke-linejoin="round"/>
<path d="M33.7448 96.4189L33.7448 163.471" stroke="white" stroke-width="4" stroke-linecap="round"/>
<path d="M93.7961 90.3234L93.7961 121.3" stroke="white" stroke-width="4" stroke-linecap="round"/>
<path d="M93.7961 138.511L93.7961 160.901" stroke="white" stroke-width="4" stroke-linecap="round"/>
<path d="M46.8025 106.251C46.8025 106.251 33.7448 112.639 33.7448 127.13V141.621C57.5104 131.358 46.8025 106.251 46.8025 106.251Z" stroke="white" stroke-width="4" stroke-linejoin="round"/>
<path d="M17.3 99.9743C23.1845 122.139 33.5803 123.512 33.5803 123.512V111.351C33.5803 111.351 30.0497 98.9934 17.3 99.9743Z" stroke="white" stroke-width="4" stroke-linejoin="round"/>
<path d="M61.1404 109.318C59.3405 94.5037 67.7818 82.8463 67.7818 82.8463L78.9977 87.8435C78.9977 87.8435 72.2164 103.365 61.1404 109.318Z" stroke="white" stroke-width="4" stroke-linejoin="round"/>
<path d="M80.9584 114.549C74.9609 100.884 80.0939 88.3057 80.0939 88.3057L91.3521 89.3857C91.3521 89.3857 89.8457 105.653 80.9584 114.549Z" stroke="white" stroke-width="4" stroke-linejoin="round"/>
<path d="M126.129 108.545C127.929 93.7305 119.385 83.168 119.385 83.168L108.917 87.4502C108.917 87.4502 115.053 102.591 126.129 108.545Z" stroke="white" stroke-width="4" stroke-linejoin="round"/>
<path d="M106.644 114.549C112.641 100.884 107.508 88.3057 107.508 88.3057L96.2502 89.3857C96.2502 89.3857 97.7566 105.653 106.644 114.549Z" stroke="white" stroke-width="4" stroke-linejoin="round"/>
<path d="M15.1382 56.2054C5.47375 73.7447 12.4399 96.4809 33.7448 96.4187C55.0498 96.4809 62.0159 73.7447 52.3515 56.2054C52.3515 56.2054 33.7448 64.2266 33.7448 82.3001C33.7448 64.2266 15.1382 56.2054 15.1382 56.2054Z" fill="#171717" stroke="white" stroke-width="4" stroke-linejoin="round"/>
<ellipse cx="93.7961" cy="77.5569" rx="29.8233" ry="14.1125" fill="#171717" stroke="white" stroke-width="4" stroke-linejoin="round"/>
<path d="M158.507 106.25L158.507 166.859" stroke="white" stroke-width="4" stroke-linecap="round"/>
<path d="M168.524 67.0762C167.892 76.3946 157.937 81.2462 157.937 81.2462C157.937 81.2462 150.209 75.1634 151.244 63.4453C152.28 51.7273 162.156 46.0435 162.156 46.0435C163.367 53.9942 169.156 57.7578 168.524 67.0762Z" fill="#171717" stroke="white" stroke-width="4" stroke-linejoin="round"/>
<path d="M175.723 82.9237C167.422 87.2046 158.119 81.1955 158.119 81.1955C158.119 81.1955 159.326 71.4357 169.889 66.2582C180.452 61.0808 190.426 66.5912 190.426 66.5912C184.249 71.7412 184.024 78.6428 175.723 82.9237Z" fill="#171717" stroke="white" stroke-width="4" stroke-linejoin="round"/>
<path d="M164.307 96.3552C156.553 91.1488 157.329 80.1009 157.329 80.1009C157.329 80.1009 166.461 76.4504 176.091 83.2059C185.722 89.9614 185.706 101.356 185.706 101.356C178.215 98.4296 172.061 101.562 164.307 96.3552Z" fill="#171717" stroke="white" stroke-width="4" stroke-linejoin="round"/>
<path d="M146.983 94.6656C147.426 85.3364 157.282 80.2842 157.282 80.2842C157.282 80.2842 165.131 86.2093 164.333 97.946C163.535 109.683 153.776 115.565 153.776 115.565C152.405 107.641 146.54 103.995 146.983 94.6656Z" fill="#171717" stroke="white" stroke-width="4" stroke-linejoin="round"/>
<path d="M138.641 77.2909C147.026 73.1789 156.206 79.3752 156.206 79.3752C156.206 79.3752 154.802 89.1085 144.136 94.0711C133.47 99.0337 123.61 93.3225 123.61 93.3225C129.89 88.2986 130.255 81.4029 138.641 77.2909Z" fill="#171717" stroke="white" stroke-width="4" stroke-linejoin="round"/>
<path d="M148.766 63.1327C156.623 68.181 156.071 79.2423 156.071 79.2423C156.071 79.2423 147.015 83.077 137.25 76.5178C127.484 69.9587 127.27 58.5657 127.27 58.5657C134.818 61.3402 140.908 58.0843 148.766 63.1327Z" fill="#171717" stroke="white" stroke-width="4" stroke-linejoin="round"/>
<path d="M129.699 116.024C151.371 113.512 158.403 137.503 158.403 137.503V146.23C158.403 146.23 136.14 147.097 129.699 116.024Z" stroke="white" stroke-width="4" stroke-linejoin="round"/>
<path d="M177.831 112.953C157.231 116.122 158.403 130.526 158.403 130.526V137.666C158.403 137.666 181.736 136.136 177.831 112.953Z" stroke="white" stroke-width="4" stroke-linejoin="round"/>
<path d="M84.8575 123.72C88.404 116.627 96.885 123.72 96.885 123.72C96.885 123.72 98.1186 115.702 105.674 118.94C113.23 122.178 104.287 145.771 104.287 145.771C104.287 145.771 81.3109 130.813 84.8575 123.72Z" stroke="white" stroke-width="4" stroke-linejoin="round"/>
<circle cx="75.6362" cy="50.831" r="4.78801" fill="white"/>
<circle cx="46.6739" cy="37.9488" r="3.9479" fill="white"/>
<path d="M126.399 40.7933L123.619 38.014" stroke="white" stroke-width="4" stroke-linecap="round" stroke-linejoin="round"/>
<path d="M132.434 40.7933L135.213 38.014" stroke="white" stroke-width="4" stroke-linecap="round" stroke-linejoin="round"/>
<path d="M126.399 46.7144L123.619 49.4937" stroke="white" stroke-width="4" stroke-linecap="round" stroke-linejoin="round"/>
<path d="M132.434 46.7144L135.213 49.4937" stroke="white" stroke-width="4" stroke-linecap="round" stroke-linejoin="round"/>
<path d="M22.8731 169.301C22.8731 169.301 41.1703 157.642 64.8541 157.642C88.5379 157.642 108.811 169.301 135.142 169.301C161.473 169.301 177.686 160.634 177.686 160.634" stroke="white" stroke-width="4" stroke-linecap="round"/>
<path d="M236.328 44.0081C226.6 47.8145 222.023 57.4966 222.023 57.4966L236.328 88.2024L250.096 57.4966C250.096 57.4966 245.21 48.2374 236.328 44.0081Z" fill="#171717" stroke="white" stroke-width="4" stroke-linejoin="round"/>
<path d="M281.312 71.3146C271.659 63.5286 262.232 68.821 258.725 72.4404L268.512 76.74C276.801 78.1757 290.965 79.1006 281.312 71.3146Z" stroke="white" stroke-width="4" stroke-linejoin="round"/>
<path d="M315.332 70.6317C325.652 63.7546 334.839 73.0036 338.003 76.9266L327.587 77.1972C319.202 77.8742 305.012 77.5089 315.332 70.6317Z" stroke="white" stroke-width="4" stroke-linejoin="round"/>
<path d="M252.865 80.9235C257.802 76.0809 270.324 77.2969 270.324 77.2969L269.893 86.8904C269.893 86.8904 259.989 91.6008 251.905 90.8157C243.82 90.0306 247.928 85.7661 252.865 80.9235Z" stroke="white" stroke-width="4" stroke-linejoin="round"/>
<path d="M337.934 82.5709C333.488 77.2738 320.908 77.2738 320.908 77.2738L320.41 86.864C320.41 86.864 329.812 92.5097 337.934 92.5097C346.057 92.5097 342.38 87.868 337.934 82.5709Z" stroke="white" stroke-width="4" stroke-linejoin="round"/>
<path d="M235.906 92.9341L235.906 162.757" stroke="white" stroke-width="4" stroke-linecap="round"/>
<path d="M295.957 94.3232L295.957 125.3" stroke="white" stroke-width="4" stroke-linecap="round"/>
<path d="M295.957 142.511L295.957 161.55" stroke="white" stroke-width="4" stroke-linecap="round"/>
<path d="M255.327 106.304C255.327 106.304 235.906 113.344 235.906 127.834V138.136C259.671 127.873 255.327 106.304 255.327 106.304Z" stroke="white" stroke-width="4" stroke-linejoin="round"/>
<path d="M217.11 100.114C222.994 122.278 235.741 120.027 235.741 120.027V112.763C235.741 112.763 229.859 99.1328 217.11 100.114Z" stroke="white" stroke-width="4" stroke-linejoin="round"/>
<path d="M261.661 109.096C259.861 94.2813 269.943 86.8463 269.943 86.8463L281.159 91.8435C281.159 91.8435 272.737 103.142 261.661 109.096Z" stroke="white" stroke-width="4" stroke-linejoin="round"/>
<path d="M283.119 118.549C277.122 104.884 282.255 92.3056 282.255 92.3056L293.513 93.3856C293.513 93.3856 292.007 109.653 283.119 118.549Z" stroke="white" stroke-width="4" stroke-linejoin="round"/>
<path d="M328.071 107.782C329.871 92.9681 321.546 87.168 321.546 87.168L311.078 91.4502C311.078 91.4502 316.995 101.829 328.071 107.782Z" stroke="white" stroke-width="4" stroke-linejoin="round"/>
<path d="M309.669 115.286C315.667 101.621 309.669 92.3055 309.669 92.3055L298.411 93.3855C298.411 93.3855 300.782 106.39 309.669 115.286Z" stroke="white" stroke-width="4" stroke-linejoin="round"/>
<path d="M215.299 52.7207C210.112 69.1633 214.601 92.9961 235.906 92.934C257.211 92.9961 262.862 70.509 256.512 52.7207C256.512 52.7207 235.906 60.7419 235.906 78.8154C235.906 60.7419 215.299 52.7207 215.299 52.7207Z" fill="#171717" stroke="white" stroke-width="4" stroke-linejoin="round"/>
<ellipse cx="295.957" cy="81.5569" rx="29.8233" ry="14.1125" fill="#171717" stroke="white" stroke-width="4" stroke-linejoin="round"/>
<path d="M360.668 102.377L360.668 166.499" stroke="white" stroke-width="4" stroke-linecap="round"/>
<path d="M367.205 60.9171C368.742 70.1296 360.175 77.1486 360.175 77.1486C360.175 77.1486 351.252 73.0141 349.554 61.3736C347.856 49.7332 356.153 41.9228 356.153 41.9228C359.167 49.3792 365.669 51.7046 367.205 60.9171Z" fill="#171717" stroke="white" stroke-width="4" stroke-linejoin="round"/>
<path d="M377.868 74.6744C370.78 80.7561 360.341 77.0571 360.341 77.0571C360.341 77.0571 359.262 67.2823 368.344 59.806C377.426 52.3298 388.403 55.3886 388.403 55.3886C383.582 61.8256 384.956 68.5927 377.868 74.6744Z" fill="#171717" stroke="white" stroke-width="4" stroke-linejoin="round"/>
<path d="M369.861 90.3787C361.115 87.1032 359.32 76.1745 359.32 76.1745C359.32 76.1745 367.362 70.5144 378.292 74.864C389.222 79.2137 391.837 90.3045 391.837 90.3045C383.873 89.1862 378.608 93.6543 369.861 90.3787Z" fill="#171717" stroke="white" stroke-width="4" stroke-linejoin="round"/>
<path d="M352.616 92.7343C350.893 83.5547 359.316 76.3637 359.316 76.3637C359.316 76.3637 368.32 80.3167 370.254 91.9205C372.187 103.524 364.05 111.501 364.05 111.501C360.886 104.107 354.338 101.914 352.616 92.7343Z" fill="#171717" stroke="white" stroke-width="4" stroke-linejoin="round"/>
<path d="M340.487 77.755C347.697 71.818 358.059 75.7276 358.059 75.7276C358.059 75.7276 358.94 85.5222 349.708 92.8131C340.476 100.104 329.563 96.8235 329.563 96.8235C334.514 90.4855 333.277 83.6919 340.487 77.755Z" fill="#171717" stroke="white" stroke-width="4" stroke-linejoin="round"/>
<path d="M347.07 61.6417C355.881 64.7396 357.897 75.6296 357.897 75.6296C357.897 75.6296 349.971 81.4514 338.955 77.3239C327.939 73.1965 325.1 62.1609 325.1 62.1609C333.085 63.1177 338.259 58.5439 347.07 61.6417Z" fill="#171717" stroke="white" stroke-width="4" stroke-linejoin="round"/>
<path d="M330.925 114.556C352.597 112.045 360.563 133.63 360.563 133.63V142.357C360.563 142.357 338.443 144.315 330.925 114.556Z" stroke="white" stroke-width="4" stroke-linejoin="round"/>
<path d="M381.985 111.424C361.385 114.592 360.564 126.653 360.564 126.653V133.793C360.564 133.793 385.89 134.607 381.985 111.424Z" stroke="white" stroke-width="4" stroke-linejoin="round"/>
<path d="M287.018 127.72C290.565 120.627 299.046 127.72 299.046 127.72C299.046 127.72 300.28 119.702 307.835 122.94C315.391 126.178 306.447 149.771 306.447 149.771C306.447 149.771 283.472 134.813 287.018 127.72Z" stroke="white" stroke-width="4" stroke-linejoin="round"/>
<path d="M274.834 47.9235L272.104 45.194" stroke="white" stroke-width="4" stroke-linecap="round" stroke-linejoin="round"/>
<path d="M280.761 47.9235L283.49 45.194" stroke="white" stroke-width="4" stroke-linecap="round" stroke-linejoin="round"/>
<path d="M274.834 53.7385L272.104 56.468" stroke="white" stroke-width="4" stroke-linecap="round" stroke-linejoin="round"/>
<path d="M280.761 53.7385L283.49 56.468" stroke="white" stroke-width="4" stroke-linecap="round" stroke-linejoin="round"/>
<path d="M246.407 35.7044L244.171 33.4683" stroke="white" stroke-width="4" stroke-linecap="round" stroke-linejoin="round"/>
<path d="M251.263 35.7044L253.499 33.4683" stroke="white" stroke-width="4" stroke-linecap="round" stroke-linejoin="round"/>
<path d="M246.407 40.4683L244.171 42.7045" stroke="white" stroke-width="4" stroke-linecap="round" stroke-linejoin="round"/>
<path d="M251.263 40.4683L253.499 42.7045" stroke="white" stroke-width="4" stroke-linecap="round" stroke-linejoin="round"/>
<circle cx="331.825" cy="43.9618" r="4.43711" fill="white"/>
<path d="M225.025 169.301C225.025 169.301 243.323 157.642 267.006 157.642C290.69 157.642 310.963 169.301 337.294 169.301C363.626 169.301 379.838 160.634 379.838 160.634" stroke="white" stroke-width="4" stroke-linecap="round"/>
</svg>
