<svg width="32" height="33" viewBox="0 0 32 33" fill="none" xmlns="http://www.w3.org/2000/svg">
<path d="M26.9905 11.1173C27.2648 10.8582 27.5392 10.3401 27.0362 9.83715C26.5333 9.33423 26.0151 9.57807 25.5884 9.94384L16.0633 17.6249L6.5534 9.94384C6.12667 9.57807 5.6085 9.33423 5.10558 9.83715C4.60265 10.3401 4.87697 10.8582 5.1513 11.1173L11.3388 16.7867L5.39514 22.9742C5.21226 23.1876 5.09034 23.5229 5.3037 23.7515C5.50182 23.9953 5.95903 23.9801 6.15715 23.8277L12.8171 18.1431L16.0633 21.1149L19.3247 18.1431L25.9847 23.8277C26.1828 23.9801 26.64 23.9953 26.8381 23.7515C27.0515 23.5229 26.9295 23.1876 26.7467 22.9742L20.803 16.7867L26.9905 11.1173Z" fill="#C2E088"/>
<path fill-rule="evenodd" clip-rule="evenodd" d="M0.217285 6.89197C0.217285 3.57826 2.90358 0.891968 6.21729 0.891968H25.9244C29.2381 0.891968 31.9244 3.57826 31.9244 6.89197V11.014C31.9245 11.0204 31.9245 11.0268 31.9245 11.0333V22.4578C31.9245 22.4642 31.9245 22.4706 31.9244 22.4771V26.5991C31.9244 29.9128 29.2381 32.5991 25.9244 32.5991H6.21729C2.90358 32.5991 0.217285 29.9128 0.217285 26.5991V6.89197ZM29.9244 11.0176C29.916 8.84271 28.1503 7.08228 25.9735 7.08228H6.16829C3.98623 7.08228 2.21732 8.85119 2.21732 11.0333V22.4578C2.21732 24.6399 3.98623 26.4088 6.16829 26.4088H25.9735C28.1503 26.4088 29.916 24.6483 29.9244 22.4735V11.0176Z" fill="#C2E088"/>
</svg>
