<?xml version="1.0" encoding="utf-8"?>
<!-- Generator: Adobe Illustrator 24.1.0, SVG Export Plug-In . SVG Version: 6.00 Build 0)  -->
<svg version="1.1" id="Layer_1" xmlns="http://www.w3.org/2000/svg" xmlns:xlink="http://www.w3.org/1999/xlink" x="0px" y="0px"
	 viewBox="0 0 1000 500" style="enable-background:new 0 0 1000 500;" xml:space="preserve">
<style type="text/css">
	.st0{fill:#FFFFFF;}
	.st1{fill:#161616;}
</style>
<path class="st0" d="M286.4,386.5L286.4,386.5l65.8-38L286.4,386.5z M33.1,249.1L33.1,249.1l67.3,38.9L33.1,249.1z M100.7,288.1
	l181.9,105.2v0L100.7,288.1z M286.4,386.5L286.4,386.5l65.8-38L286.4,386.5z M286.4,386.5L286.4,386.5l65.8-38L286.4,386.5z
	 M100.7,288.1l181.9,105.2v0L100.7,288.1z"/>
<path class="st0" d="M436.3,303.3c-0.1-0.1-0.2-0.2-0.4-0.3s-0.3-0.2-0.4-0.3l-0.1-0.1l-211-121.8l-7.6-4.4l-35.6-20.5l-2.9-1.7
	c0,0,0,0,0,0c-0.1,0-0.1-0.1-0.2-0.1c-0.4-0.2-0.9-0.4-1.4-0.5c-0.3,0-0.6,0-1,0c-0.5,0.1-1,0.2-1.4,0.5c-0.1,0-0.1,0.1-0.2,0.1l0,0
	L148,169.2l-48.5,28.1l-11.9,6.9L27.4,239c0,0-0.1,0.1-0.2,0.1c-0.1,0.1-0.3,0.2-0.5,0.4c0,0-0.1,0.1-0.2,0.1
	c-0.1,0-0.1,0.1-0.2,0.2c-0.4,0.5-0.7,1-0.8,1.6c-0.1,0.3-0.1,0.6-0.1,0.9c0,0,0,0,0,0l0,0L25,327.2c0,1.4,0.7,2.7,1.9,3.4
	l257.5,148.7c0.1,0.1,0.3,0.1,0.5,0.2c0.3,0.1,0.6,0.2,1,0.3c0.1,0,0.3,0,0.5,0c0.2,0,0.3,0,0.5,0c0.3,0,0.6-0.1,1-0.3
	c0.2-0.1,0.3-0.1,0.5-0.2l147.1-84.9c1.2-0.7,1.9-2,1.9-3.3v-85C437.4,305,437,304,436.3,303.3z M102.8,204.3l11-6.4h0.1l58.2-33.7
	v76l-69.7,40.1L37,242.4L102.8,204.3z M282.6,469.2L32.8,325l0.3-76l0,0l67.3,38.9l0.2,0.1l181.9,105.1V469.2z M286.5,386.5
	L286.5,386.5L286.5,386.5L110.2,284.7l65.8-37.8l15.3,8.9l5,2.9L230,278l5.6,3.2l36.6,21.2l5.6,3.2l33.4,19.3l5,2.9l35.9,20.7
	L286.5,386.5z M359.9,344.1L359.9,344.1L324,323.3l-5-2.9l-37.2-21.5l-5.6-3.2L247,278.9l-5.6-3.2l-37.4-21.6l-5-2.9l-19.2-11.1v-76
	l29.1,16.8l7.6,4.4L425.7,306L359.9,344.1z"/>
<path class="st0" d="M179.9,242.4c0,0.2,0,0.3,0,0.5c0,0.2-0.1,0.5-0.1,0.7c-0.1,0.2-0.2,0.5-0.3,0.6c0,0.1-0.1,0.2-0.2,0.3
	s-0.1,0.2-0.2,0.3s-0.1,0.2-0.2,0.3s-0.2,0.2-0.3,0.2c-0.1,0.1-0.2,0.1-0.3,0.2c-0.1,0-0.1,0.1-0.2,0.1l-0.1,0l-1.8,1.1l-1.8-1.1
	l-0.1,0c-0.2-0.1-0.5-0.3-0.6-0.5c-0.1-0.1-0.3-0.3-0.4-0.4c-0.1-0.1-0.1-0.2-0.2-0.3c-0.1-0.1-0.2-0.3-0.3-0.5
	c-0.1-0.2-0.2-0.4-0.2-0.6v0c0-0.2-0.1-0.4-0.1-0.6c0-0.1,0-0.3,0-0.5v-2.2l1.8-1.1c0,0,0.1,0,0.1-0.1c0.9-0.5,1.9-0.6,2.9-0.4
	c0.3,0.1,0.6,0.2,0.9,0.4l0,0c0.6,0.3,1,0.8,1.3,1.4C179.8,241.1,179.9,241.7,179.9,242.4z"/>
<path class="st0" d="M176.5,153.6c0.5,0.1,1,0.2,1.4,0.5C177.5,153.8,177,153.6,176.5,153.6z M175.5,153.6c0.3,0,0.6,0,1,0
	c-0.1,0-0.3,0-0.5,0C175.8,153.5,175.7,153.5,175.5,153.6z M175.5,153.6c-0.5,0-1,0.2-1.4,0.5C174.5,153.8,175,153.6,175.5,153.6z"
	/>
<polygon class="st1" points="238.3,163.8 216.7,176.5 209,180.9 199.8,186.3 183.2,176.8 179.9,178.7 172.1,183.2 148,197.2 
	113.9,197.8 113.8,197.8 99.5,198.1 99.5,197.2 99.4,169.2 148,169.2 158.3,169.2 172.1,161.1 179.9,156.7 181.2,155.9 202.8,143.3 
	"/>
<path class="st0" d="M224.5,121.9l-70.7,41.1L94,163c-13.6,0-24.6,3.4-30.8,9.7c-6.7,6.7-6.6,15.2,0.1,21.9c1.6,1.5,3.3,2.9,5.4,4.1
	c5,2.9,11.5,4.7,18.9,5.4c2.1,0.2,4.3,0.3,6.6,0.3l8.6-0.1l69.4-1.2l7.8-0.1l6.7-0.1l30-17.5l7.7-4.5l51-29.7L224.5,121.9z
	 M216.7,176.5l-7.7,4.5l-9.2,5.4l-16.5-9.5l-3.3,1.9l-7.8,4.5L148,197.2l-34.1,0.6h-0.1l-14.3,0.3v-0.9l-0.1-28l48.6,0h10.3l13.8-8
	l7.7-4.5l1.3-0.7l21.6-12.6l35.5,20.5L216.7,176.5z"/>
<path class="st1" d="M313.7,323.5c-1,0.6-3.2,1.8-5.4,3l-0.2-0.1c-2.5-1.8-5.7-3.9-9.6-6.1c-7.9-4.6-15.7-7.7-23.8-9.5l10.1-16.9
	l40.1,23.1L313.7,323.5z"/>
<path class="st1" d="M279.3,290.5l-11.4,19c-0.8-0.1-1.7-0.2-2.6-0.3c-14.3-1.3-28.7,1.5-42.9,8.4l-11.1-6.4
	c5.7-3.6,13.7-10.3,14.5-18.9c0.3-3-0.3-5.9-1.7-8.8l31.7-6.4L279.3,290.5z"/>
<path class="st1" d="M250.4,273.9l-28.5,5.8c-3.4-4.6-8.8-9-16.4-13.4c-3.5-2-7.5-4-11.9-6l16.6-9.6L250.4,273.9z"/>
<path class="st0" d="M344,310l-122-70.4l-1.5-0.8l-21.5,12.5l-7.7,4.5l-8.7,5c-4.3,3.2-0.7,7.2,3.5,12.1
	c6.3,7.4,15.9,18.6,14.9,38.3h0.1v0l20.9,12.1v0h0c33.9-0.6,52.6,4.5,64.9,7.9c8.7,2.4,15.5,4.2,21.2,1l0,0c1.2-0.4,5.3-2.8,8-4.3
	c1.3-0.7,2.4-1.3,2.5-1.4l5.3-3l21.5-12.5L344,310z M193.6,260.3l2.9-1.7l7.7-4.5l6-3.5l40.2,23.2l-8.9,1.8L230,278l-8.2,1.7
	c-3.4-4.6-8.8-9-16.4-13.4C202,264.3,198,262.3,193.6,260.3z M267.9,309.6c-0.8-0.1-1.7-0.2-2.6-0.3c-14.3-1.3-28.7,1.5-42.9,8.4
	l-11.1-6.4c5.7-3.6,13.7-10.3,14.5-18.9c0.3-3-0.3-5.9-1.7-8.8l11.4-2.3l11.5-2.3l8.9-1.8l23.3,13.5l-3.1,5.2l-4,6.7L267.9,309.6z
	 M319,320.4l-5.3,3c-0.5,0.3-1.4,0.8-2.5,1.4c-0.9,0.5-1.9,1.1-2.9,1.6l-0.2-0.1c-2.5-1.8-5.7-3.9-9.6-6.1
	c-7.9-4.6-15.7-7.7-23.8-9.5l3.1-5.1l4-6.7l3.1-5.2l40.1,23.1L319,320.4z"/>
<polygon class="st1" points="282.6,393.2 282.6,469.2 32.8,325 33.1,249.1 33.1,249.1 100.5,287.9 100.7,288.1 "/>
<path class="st0" d="M176,375c-0.8,0-1.6-0.2-2.3-0.6l-37.4-21.6c-2.2-1.3-3-4.1-1.7-6.3s4.1-3,6.3-1.7l37.4,21.6
	c2.2,1.3,3,4.1,1.7,6.3C179.2,374.2,177.6,375,176,375z"/>
<path class="st1" d="M432.6,204.5l-51.9,36l-41.9-24.2l8.8-7.5c3.9,0,8-0.4,12.3-1.4c12.8-3,26.2-10.3,39.8-21.9L432.6,204.5z"/>
<path class="st1" d="M393.4,181.9c-15.3,13-27.7,18.1-35.5,20c-6.3,1.6-10.5,1.3-12.2,1.2l-6.2-3.6c-1.5-6.9,4.2-13.6,16.8-19.9
	c7.9-3.9,16.4-6.5,20.1-7.5L393.4,181.9z"/>
<path class="st1" d="M369.2,167.9c-4.5,1.4-11.2,3.7-17.7,6.9c-13.8,6.8-20.8,14.8-20.4,23.1l-13.8,6l-42.1-24.3l61.7-30.4
	L369.2,167.9z"/>
<path class="st0" d="M350.3,135.7l-82.6,40.6c-1.4,0.7-2.3,1.8-2.3,3.1c0,1.2,0.7,2.3,2,3.1l45.9,26.5c2,1.2,5.1,1.3,7.3,0.3
	l13.1-5.7l5.6,3.2l-8.5,7.3c-0.9,0.7-1.3,1.7-1.2,2.7c0.1,1.1,0.8,2,2,2.7l45.3,26.1c1.1,0.6,2.5,1,4,1c1.6,0,3.2-0.4,4.4-1.2
	l70.5-49L350.3,135.7z M338.8,216.3l8.8-7.5c3.9,0,8-0.4,12.3-1.4c12.8-3,26.2-10.3,39.8-21.9l32.9,19l-51.9,36L338.8,216.3z
	 M331.1,198l-13.8,6l-42.1-24.3l61.7-30.4l32.3,18.6c-4.5,1.4-11.2,3.7-17.7,6.9C337.7,181.6,330.6,189.6,331.1,198z M356.2,179.5
	c7.9-3.9,16.4-6.5,20.1-7.5l17.1,9.8c-15.3,13-27.7,18.1-35.5,20c-6.3,1.6-10.5,1.3-12.2,1.2l-6.2-3.6
	C337.9,192.4,343.6,185.7,356.2,179.5z"/>
<path class="st0" d="M163.1,76.6c-0.8,0-1.6-0.3-2.2-0.9l-4.5-4.5c-1.2-1.2-1.2-3.2,0-4.4c1.2-1.2,3.2-1.2,4.4,0l4.5,4.5
	c1.2,1.2,1.2,3.2,0,4.4C164.7,76.3,163.9,76.6,163.1,76.6z"/>
<path class="st0" d="M179.1,92.6c-0.8,0-1.6-0.3-2.2-0.9l-4.5-4.5c-1.2-1.2-1.2-3.2,0-4.4c1.2-1.2,3.2-1.2,4.4,0l4.5,4.5
	c1.2,1.2,1.2,3.2,0,4.4C180.7,92.3,179.9,92.6,179.1,92.6z"/>
<path class="st0" d="M174.5,76.6c-0.8,0-1.6-0.3-2.2-0.9c-1.2-1.2-1.2-3.2,0-4.4l4.5-4.5c1.2-1.2,3.2-1.2,4.4,0s1.2,3.2,0,4.4
	l-4.5,4.5C176.2,76.3,175.4,76.6,174.5,76.6z"/>
<path class="st0" d="M158.6,92.6c-0.8,0-1.6-0.3-2.2-0.9c-1.2-1.2-1.2-3.2,0-4.4l4.5-4.5c1.2-1.2,3.2-1.2,4.4,0
	c1.2,1.2,1.2,3.2,0,4.4l-4.5,4.5C160.2,92.3,159.4,92.6,158.6,92.6z"/>
<path class="st0" d="M372.1,66c-1.2,0-2.2-0.6-2.7-1.6l-6.6-12l-12-6.6c-1-0.6-1.6-1.6-1.6-2.7c0-1.1,0.6-2.2,1.6-2.7l12-6.6l6.6-12
	c0.6-1,1.6-1.6,2.7-1.6c1.2,0,2.2,0.6,2.7,1.6l6.6,12l12,6.6c1,0.6,1.6,1.6,1.6,2.7c0,1.1-0.6,2.2-1.6,2.7l-12,6.6l-6.6,12
	C374.2,65.3,373.2,66,372.1,66z M358.8,43.1l7.8,4.3c0.5,0.3,0.9,0.7,1.2,1.2l4.3,7.8l4.3-7.8c0.3-0.5,0.7-1,1.2-1.2l7.8-4.3
	l-7.8-4.3c-0.5-0.3-0.9-0.7-1.2-1.2l-4.3-7.8l-4.3,7.9c-0.3,0.5-0.7,1-1.2,1.2L358.8,43.1z"/>
<path class="st0" d="M455.9,252.5c-0.8,0-1.6-0.3-2.2-0.9l-4.5-4.5c-1.2-1.2-1.2-3.2,0-4.4c1.2-1.2,3.2-1.2,4.4,0l4.5,4.5
	c1.2,1.2,1.2,3.2,0,4.4C457.5,252.2,456.7,252.5,455.9,252.5z"/>
<path class="st0" d="M471.9,268.5c-0.8,0-1.6-0.3-2.2-0.9l-4.5-4.5c-1.2-1.2-1.2-3.2,0-4.4c1.2-1.2,3.2-1.2,4.4,0l4.5,4.5
	c1.2,1.2,1.2,3.2,0,4.4C473.5,268.2,472.7,268.5,471.9,268.5z"/>
<path class="st0" d="M467.4,252.5c-0.8,0-1.6-0.3-2.2-0.9c-1.2-1.2-1.2-3.2,0-4.4l4.5-4.5c1.2-1.2,3.2-1.2,4.4,0
	c1.2,1.2,1.2,3.2,0,4.4l-4.5,4.5C468.9,252.2,468.1,252.5,467.4,252.5z"/>
<path class="st0" d="M451.4,268.5c-0.8,0-1.6-0.3-2.2-0.9c-1.2-1.2-1.2-3.2,0-4.4l4.5-4.5c1.2-1.2,3.2-1.2,4.4,0
	c1.2,1.2,1.2,3.2,0,4.4l-4.5,4.5C452.9,268.2,452.2,268.5,451.4,268.5z"/>
<path class="st0" d="M786.4,386.5L786.4,386.5l65.8-38L786.4,386.5z M533.1,249.1L533.1,249.1l67.3,38.9L533.1,249.1z M600.7,288.1
	l181.9,105.2v0L600.7,288.1z M786.4,386.5L786.4,386.5l65.8-38L786.4,386.5z M786.4,386.5L786.4,386.5l65.8-38L786.4,386.5z
	 M600.7,288.1l181.9,105.2v0L600.7,288.1z"/>
<path class="st0" d="M936.3,303.3c-0.1-0.1-0.2-0.2-0.4-0.3s-0.3-0.2-0.4-0.3l-0.1-0.1l-211-121.8l-7.6-4.4l-35.6-20.5l-2.9-1.7
	c0,0,0,0,0,0c-0.1,0-0.1-0.1-0.2-0.1c-0.4-0.2-0.9-0.4-1.4-0.5c-0.3,0-0.6,0-1,0c-0.5,0.1-1,0.2-1.4,0.5c-0.1,0-0.1,0.1-0.2,0.1l0,0
	L648,169.2l-48.5,28.1l-11.9,6.9L527.4,239c0,0-0.1,0.1-0.2,0.1c-0.1,0.1-0.3,0.2-0.5,0.4c0,0-0.1,0.1-0.2,0.1
	c-0.1,0-0.1,0.1-0.2,0.2c-0.4,0.5-0.7,1-0.8,1.6c-0.1,0.3-0.1,0.6-0.1,0.9c0,0,0,0,0,0l0,0l-0.4,84.9c0,1.4,0.7,2.7,1.9,3.4
	l257.5,148.7c0.1,0.1,0.3,0.1,0.5,0.2c0.3,0.1,0.6,0.2,1,0.3c0.1,0,0.3,0,0.5,0c0.2,0,0.3,0,0.5,0c0.3,0,0.6-0.1,1-0.3
	c0.2-0.1,0.3-0.1,0.5-0.2l147.1-84.9c1.2-0.7,1.9-2,1.9-3.3v-85C937.4,305,937,304,936.3,303.3z M602.8,204.3l11-6.4h0.1l58.2-33.7
	v76l-69.7,40.1L537,242.4L602.8,204.3z M782.6,469.2L532.8,325l0.3-76l0,0l67.3,38.9l0.2,0.1l181.9,105.1V469.2z M786.5,386.5
	L786.5,386.5L786.5,386.5L610.2,284.7l65.8-37.8l15.3,8.9l5,2.9L730,278l5.6,3.2l36.6,21.2l5.6,3.2l33.4,19.3l5,2.9l35.9,20.7
	L786.5,386.5z M859.9,344.1L859.9,344.1L824,323.3l-5-2.9l-37.2-21.5l-5.6-3.2L747,278.9l-5.6-3.2l-37.4-21.6l-5-2.9l-19.2-11.1v-76
	l29.1,16.8l7.6,4.4L925.7,306L859.9,344.1z"/>
<path class="st0" d="M679.9,242.4c0,0.2,0,0.3,0,0.5c0,0.2-0.1,0.5-0.1,0.7c-0.1,0.2-0.2,0.5-0.3,0.6c0,0.1-0.1,0.2-0.2,0.3
	c0,0.1-0.1,0.2-0.2,0.3c-0.1,0.1-0.1,0.2-0.2,0.3c-0.1,0.1-0.2,0.2-0.3,0.2c-0.1,0.1-0.2,0.1-0.3,0.2c-0.1,0-0.1,0.1-0.2,0.1l-0.1,0
	l-1.8,1.1l-1.8-1.1l-0.1,0c-0.2-0.1-0.5-0.3-0.6-0.5c-0.1-0.1-0.3-0.3-0.4-0.4c-0.1-0.1-0.1-0.2-0.2-0.3c-0.1-0.1-0.2-0.3-0.3-0.5
	c-0.1-0.2-0.2-0.4-0.2-0.6v0c0-0.2-0.1-0.4-0.1-0.6c0-0.1,0-0.3,0-0.5v-2.2l1.8-1.1c0,0,0.1,0,0.1-0.1c0.9-0.5,1.9-0.6,2.9-0.4
	c0.3,0.1,0.6,0.2,0.9,0.4l0,0c0.6,0.3,1,0.8,1.3,1.4C679.8,241.1,679.9,241.7,679.9,242.4z"/>
<path class="st0" d="M676.5,153.6c0.5,0.1,1,0.2,1.4,0.5C677.5,153.8,677,153.6,676.5,153.6z M675.5,153.6c0.3,0,0.6,0,1,0
	c-0.1,0-0.3,0-0.5,0C675.8,153.5,675.7,153.5,675.5,153.6z M675.5,153.6c-0.5,0-1,0.2-1.4,0.5C674.5,153.8,675,153.6,675.5,153.6z"
	/>
<polygon class="st1" points="722.3,152.8 700.7,165.5 693,169.9 683.8,175.3 667.2,165.8 663.9,167.7 656.1,172.2 632,186.2 
	597.9,186.8 597.8,186.8 583.5,187.1 583.5,186.2 583.4,158.2 632,158.2 642.3,158.2 656.1,150.1 663.9,145.7 665.2,144.9 
	686.8,132.3 "/>
<path class="st0" d="M708.5,110.9l-70.7,41.1L578,152c-13.6,0-24.6,3.4-30.8,9.7c-6.7,6.7-6.6,15.2,0.1,21.9
	c1.6,1.5,3.3,2.9,5.4,4.1c5,2.9,11.5,4.7,18.9,5.4c2.1,0.2,4.3,0.3,6.6,0.3l8.6-0.1l69.4-1.2l7.8-0.1l6.7-0.1l30-17.5l7.7-4.5
	l51-29.7L708.5,110.9z M700.7,165.5l-7.7,4.5l-9.2,5.4l-16.5-9.5l-3.3,1.9l-7.8,4.5L632,186.2l-34.1,0.6h-0.1l-14.3,0.3v-0.9
	l-0.1-28l48.6,0h10.3l13.8-8l7.7-4.5l1.3-0.7l21.6-12.6l35.5,20.5L700.7,165.5z"/>
<path class="st1" d="M813.7,317.5c-1,0.6-3.2,1.8-5.4,3l-0.2-0.1c-2.5-1.8-5.7-3.9-9.6-6.1c-7.9-4.6-15.7-7.7-23.8-9.5l10.1-16.9
	l40.1,23.1L813.7,317.5z"/>
<path class="st1" d="M779.3,284.5l-11.4,19c-0.8-0.1-1.7-0.2-2.6-0.3c-14.3-1.3-28.7,1.5-42.9,8.4l-11.1-6.4
	c5.7-3.6,13.7-10.3,14.5-18.9c0.3-3-0.3-5.9-1.7-8.8l31.7-6.4L779.3,284.5z"/>
<path class="st1" d="M750.4,267.9l-28.5,5.8c-3.4-4.6-8.8-9-16.4-13.4c-3.5-2-7.5-4-11.9-6l16.6-9.6L750.4,267.9z"/>
<path class="st0" d="M844,304l-122-70.4l-1.5-0.8l-21.5,12.5l-7.7,4.5l-8.7,5c-4.3,3.2-0.7,7.2,3.5,12.1
	c6.3,7.4,15.9,18.6,14.9,38.3h0.1v0l20.9,12.1v0h0c33.9-0.6,52.6,4.5,64.9,7.9c8.7,2.4,15.5,4.2,21.2,1l0,0c1.2-0.4,5.3-2.8,8-4.3
	c1.3-0.7,2.4-1.3,2.5-1.4l5.3-3l21.5-12.5L844,304z M693.6,254.3l2.9-1.7l7.7-4.5l6-3.5l40.2,23.2l-8.9,1.8L730,272l-8.2,1.7
	c-3.4-4.6-8.8-9-16.4-13.4C702,258.3,698,256.3,693.6,254.3z M767.9,303.6c-0.8-0.1-1.7-0.2-2.6-0.3c-14.3-1.3-28.7,1.5-42.9,8.4
	l-11.1-6.4c5.7-3.6,13.7-10.3,14.5-18.9c0.3-3-0.3-5.9-1.7-8.8l11.4-2.3l11.5-2.3l8.9-1.8l23.3,13.5l-3.1,5.2l-4,6.7L767.9,303.6z
	 M819,314.4l-5.3,3c-0.5,0.3-1.4,0.8-2.5,1.4c-0.9,0.5-1.9,1.1-2.9,1.6l-0.2-0.1c-2.5-1.8-5.7-3.9-9.6-6.1
	c-7.9-4.6-15.7-7.7-23.8-9.5l3.1-5.1l4-6.7l3.1-5.2l40.1,23.1L819,314.4z"/>
<polygon class="st1" points="782.6,393.2 782.6,469.2 532.8,325 533.1,249.1 533.1,249.1 600.5,287.9 600.7,288.1 "/>
<path class="st0" d="M676,375c-0.8,0-1.6-0.2-2.3-0.6l-37.4-21.6c-2.2-1.3-3-4.1-1.7-6.3s4.1-3,6.3-1.7l37.4,21.6
	c2.2,1.3,3,4.1,1.7,6.3C679.2,374.2,677.6,375,676,375z"/>
<path class="st1" d="M932.6,184.5l-51.9,36l-41.9-24.2l8.8-7.5c3.9,0,8-0.4,12.3-1.4c12.8-3,26.2-10.3,39.8-21.9L932.6,184.5z"/>
<path class="st1" d="M893.4,161.9c-15.3,13-27.7,18.1-35.5,20c-6.3,1.6-10.5,1.3-12.2,1.2l-6.2-3.6c-1.5-6.9,4.2-13.6,16.8-19.9
	c7.9-3.9,16.4-6.5,20.1-7.5L893.4,161.9z"/>
<path class="st1" d="M869.2,147.9c-4.5,1.4-11.2,3.7-17.7,6.9c-13.8,6.8-20.8,14.8-20.4,23.1l-13.8,6l-42.1-24.3l61.7-30.4
	L869.2,147.9z"/>
<path class="st0" d="M850.3,115.7l-82.6,40.6c-1.4,0.7-2.3,1.8-2.3,3.1c0,1.2,0.7,2.3,2,3.1l45.9,26.5c2,1.2,5.1,1.3,7.3,0.3
	l13.1-5.7l5.6,3.2l-8.5,7.3c-0.9,0.7-1.3,1.7-1.2,2.7c0.1,1.1,0.8,2,2,2.7l45.3,26.1c1.1,0.6,2.5,1,4,1c1.6,0,3.2-0.4,4.4-1.2
	l70.5-49L850.3,115.7z M838.8,196.3l8.8-7.5c3.9,0,8-0.4,12.3-1.4c12.8-3,26.2-10.3,39.8-21.9l32.9,19l-51.9,36L838.8,196.3z
	 M831.1,178l-13.8,6l-42.1-24.3l61.7-30.4l32.3,18.6c-4.5,1.4-11.2,3.7-17.7,6.9C837.7,161.6,830.6,169.6,831.1,178z M856.2,159.5
	c7.9-3.9,16.4-6.5,20.1-7.5l17.1,9.8c-15.3,13-27.7,18.1-35.5,20c-6.3,1.6-10.5,1.3-12.2,1.2l-6.2-3.6
	C837.9,172.4,843.6,165.7,856.2,159.5z"/>
<path class="st0" d="M663.1,86.6c-0.8,0-1.6-0.3-2.2-0.9l-4.5-4.5c-1.2-1.2-1.2-3.2,0-4.4s3.2-1.2,4.4,0l4.5,4.5
	c1.2,1.2,1.2,3.2,0,4.4C664.7,86.3,663.9,86.6,663.1,86.6z"/>
<path class="st0" d="M679.1,102.6c-0.8,0-1.6-0.3-2.2-0.9l-4.5-4.5c-1.2-1.2-1.2-3.2,0-4.4c1.2-1.2,3.2-1.2,4.4,0l4.5,4.5
	c1.2,1.2,1.2,3.2,0,4.4C680.7,102.3,679.9,102.6,679.1,102.6z"/>
<path class="st0" d="M674.5,86.6c-0.8,0-1.6-0.3-2.2-0.9c-1.2-1.2-1.2-3.2,0-4.4l4.5-4.5c1.2-1.2,3.2-1.2,4.4,0s1.2,3.2,0,4.4
	l-4.5,4.5C676.2,86.3,675.4,86.6,674.5,86.6z"/>
<path class="st0" d="M658.6,102.6c-0.8,0-1.6-0.3-2.2-0.9c-1.2-1.2-1.2-3.2,0-4.4l4.5-4.5c1.2-1.2,3.2-1.2,4.4,0
	c1.2,1.2,1.2,3.2,0,4.4l-4.5,4.5C660.2,102.3,659.4,102.6,658.6,102.6z"/>
<path class="st0" d="M872.1,87c-1.2,0-2.2-0.6-2.7-1.6l-6.6-12l-12-6.6c-1-0.6-1.6-1.6-1.6-2.7c0-1.1,0.6-2.2,1.6-2.7l12-6.6l6.6-12
	c0.6-1,1.6-1.6,2.7-1.6s2.2,0.6,2.7,1.6l6.6,12l12,6.6c1,0.6,1.6,1.6,1.6,2.7c0,1.1-0.6,2.2-1.6,2.7l-12,6.6l-6.6,12
	C874.2,86.3,873.2,87,872.1,87z M858.8,64.1l7.8,4.3c0.5,0.3,0.9,0.7,1.2,1.2l4.3,7.8l4.3-7.8c0.3-0.5,0.7-1,1.2-1.2l7.8-4.3
	l-7.8-4.3c-0.5-0.3-0.9-0.7-1.2-1.2l-4.3-7.8l-4.3,7.9c-0.3,0.5-0.7,1-1.2,1.2L858.8,64.1z"/>
<path class="st0" d="M955.9,232.5c-0.8,0-1.6-0.3-2.2-0.9l-4.5-4.5c-1.2-1.2-1.2-3.2,0-4.4c1.2-1.2,3.2-1.2,4.4,0l4.5,4.5
	c1.2,1.2,1.2,3.2,0,4.4C957.5,232.2,956.7,232.5,955.9,232.5z"/>
<path class="st0" d="M971.9,248.5c-0.8,0-1.6-0.3-2.2-0.9l-4.5-4.5c-1.2-1.2-1.2-3.2,0-4.4s3.2-1.2,4.4,0l4.5,4.5
	c1.2,1.2,1.2,3.2,0,4.4C973.5,248.2,972.7,248.5,971.9,248.5z"/>
<path class="st0" d="M967.4,232.5c-0.8,0-1.6-0.3-2.2-0.9c-1.2-1.2-1.2-3.2,0-4.4l4.5-4.5c1.2-1.2,3.2-1.2,4.4,0
	c1.2,1.2,1.2,3.2,0,4.4l-4.5,4.5C968.9,232.2,968.1,232.5,967.4,232.5z"/>
<path class="st0" d="M951.4,248.5c-0.8,0-1.6-0.3-2.2-0.9c-1.2-1.2-1.2-3.2,0-4.4l4.5-4.5c1.2-1.2,3.2-1.2,4.4,0
	c1.2,1.2,1.2,3.2,0,4.4l-4.5,4.5C952.9,248.2,952.2,248.5,951.4,248.5z"/>
</svg>
