<svg width="404" height="203" viewBox="0 0 404 203" fill="none" xmlns="http://www.w3.org/2000/svg">
<path d="M18.4327 165.716C23.4532 165.716 31.848 157.583 43.0306 157.583C54.2133 157.583 54.1017 165.716 66.1377 165.716C78.1737 165.716 79.9847 157.583 90.7357 157.583C101.487 157.583 103.76 165.716 113.47 165.716C123.181 165.716 127.798 157.583 138.441 157.583C149.084 157.583 154.912 165.716 161.548 165.716" stroke="white" stroke-width="4" stroke-linecap="round" stroke-linejoin="round"/>
<path d="M67.2192 164.294C67.2192 164.294 55.2625 147.458 54.303 123.47C53.3435 99.4827 64.9803 84.4504 56.5419 67.8191" stroke="white" stroke-width="4" stroke-linecap="round" stroke-linejoin="round"/>
<path d="M38.5237 171.548L45.7202 174.677" stroke="white" stroke-width="4" stroke-linecap="round" stroke-linejoin="round"/>
<path d="M70.0665 179.742L77.3809 176.9" stroke="white" stroke-width="4" stroke-linecap="round" stroke-linejoin="round"/>
<path d="M90.8892 169.563L98.481 171.548" stroke="white" stroke-width="4" stroke-linecap="round" stroke-linejoin="round"/>
<path d="M137.195 170.004L142.403 171.989" stroke="white" stroke-width="4" stroke-linecap="round" stroke-linejoin="round"/>
<path d="M135.121 109.715L95.5016 95.0203L96.7011 88.8383L129.641 96.5889L135.121 109.715Z" fill="#171717" stroke="white" stroke-width="4" stroke-linecap="round" stroke-linejoin="round"/>
<path d="M120.815 75.1374L159.369 56.5676L181.121 95.6528L137.817 116.51L120.815 75.1374Z" fill="#171717" stroke="white" stroke-width="4" stroke-linecap="round" stroke-linejoin="round"/>
<path d="M126.012 85.1162L163.653 66.9862" stroke="white" stroke-width="4" stroke-linecap="round" stroke-linejoin="round"/>
<path d="M165.075 66.595C162.348 60.933 169.447 51.7994 177.27 59.5207C185.092 67.242 173.466 77.4989 178.19 87.3072" stroke="white" stroke-width="4" stroke-linecap="round" stroke-linejoin="round"/>
<path d="M146.709 55.6683L142.371 46.6612C139.801 41.3263 133.393 39.0846 128.059 41.6542V41.6542C122.724 44.2238 120.482 50.6317 123.052 55.9666L127.39 64.9737" stroke="white" stroke-width="4" stroke-linecap="round" stroke-linejoin="round"/>
<ellipse cx="90.6222" cy="90.0348" rx="5.77112" ry="11.0218" transform="rotate(10.1206 90.6222 90.0348)" fill="#171717" stroke="white" stroke-width="4" stroke-linecap="round" stroke-linejoin="round"/>
<path d="M72.8287 131.311C78.6115 124.458 79.8966 109.465 79.8966 109.465C79.8966 109.465 69.8302 111.179 62.9765 117.39C56.1228 123.601 56.1228 134.953 56.1228 134.953C56.1228 134.953 67.0459 138.165 72.8287 131.311Z" stroke="white" stroke-width="4" stroke-linecap="round" stroke-linejoin="round"/>
<path d="M37.5403 129.311C31.7575 122.458 30.4725 107.465 30.4725 107.465C30.4725 107.465 40.5388 109.179 47.3925 115.39C54.2462 121.601 54.2462 132.953 54.2462 132.953C54.2462 132.953 43.3231 136.165 37.5403 129.311Z" stroke="white" stroke-width="4" stroke-linecap="round" stroke-linejoin="round"/>
<path d="M74.1325 82.3176C78.8485 77.7691 79.8965 67.8191 79.8965 67.8191C79.8965 67.8191 71.6871 68.9563 66.0977 73.0784C60.5083 77.2006 60.5083 84.7341 60.5083 84.7341C60.5083 84.7341 69.4164 86.8662 74.1325 82.3176Z" stroke="white" stroke-width="4" stroke-linecap="round" stroke-linejoin="round"/>
<path d="M43.8347 96.6847C39.4894 91.5124 38.5237 80.198 38.5237 80.198C38.5237 80.198 46.0879 81.4912 51.2379 86.1785C56.388 90.8659 56.388 99.4325 56.388 99.4325C56.388 99.4325 48.1801 101.857 43.8347 96.6847Z" stroke="white" stroke-width="4" stroke-linecap="round" stroke-linejoin="round"/>
<path d="M220.433 165.716C225.453 165.716 233.848 157.583 245.031 157.583C256.213 157.583 256.102 165.716 268.138 165.716C280.174 165.716 281.985 157.583 292.736 157.583C303.487 157.583 305.76 165.716 315.47 165.716C325.181 165.716 329.798 157.583 340.441 157.583C351.084 157.583 356.912 165.716 363.548 165.716" stroke="white" stroke-width="4" stroke-linecap="round" stroke-linejoin="round"/>
<path d="M269.219 164.294C269.219 164.294 257.262 147.458 256.303 123.47C255.343 99.4827 266.63 75.486 258.192 58.8547" stroke="white" stroke-width="4" stroke-linecap="round" stroke-linejoin="round"/>
<path d="M240.199 173.172L248.045 173.053" stroke="white" stroke-width="4" stroke-linecap="round" stroke-linejoin="round"/>
<path d="M271.87 177.585L279.578 179.057" stroke="white" stroke-width="4" stroke-linecap="round" stroke-linejoin="round"/>
<path d="M292.778 170.92L300.592 170.191" stroke="white" stroke-width="4" stroke-linecap="round" stroke-linejoin="round"/>
<path d="M339.016 171.139L344.582 170.854" stroke="white" stroke-width="4" stroke-linecap="round" stroke-linejoin="round"/>
<path d="M340.57 100.666L298.981 93.0145L298.981 87.1251L332.581 88.4843L340.57 100.666Z" fill="#171717" stroke="white" stroke-width="4" stroke-linecap="round" stroke-linejoin="round"/>
<path d="M320.407 69.1427L355.095 44.0829L383.38 78.7344L344.419 106.881L320.407 69.1427Z" fill="#171717" stroke="white" stroke-width="4" stroke-linecap="round" stroke-linejoin="round"/>
<path d="M327.278 78.0522L361.144 53.586" stroke="white" stroke-width="4" stroke-linecap="round" stroke-linejoin="round"/>
<path d="M362.475 52.9511C358.795 47.8569 364.177 37.6172 373.235 43.8427C382.294 50.0682 372.652 62.2096 379.028 71.0343" stroke="white" stroke-width="4" stroke-linecap="round" stroke-linejoin="round"/>
<path d="M342.474 45.424L336.619 37.3201C333.152 32.5201 326.449 31.4401 321.649 34.9078V34.9078C316.85 38.3754 315.77 45.0776 319.237 49.8776L325.092 57.9815" stroke="white" stroke-width="4" stroke-linecap="round" stroke-linejoin="round"/>
<ellipse cx="293.304" cy="89.1172" rx="5.77112" ry="11.0218" transform="rotate(-0.00699043 293.304 89.1172)" fill="#171717" stroke="white" stroke-width="4" stroke-linecap="round" stroke-linejoin="round"/>
<path d="M274.829 131.311C280.611 124.458 281.573 105.398 281.573 105.398C281.573 105.398 271.164 109.457 264.31 115.669C257.457 121.88 258.123 134.952 258.123 134.952C258.123 134.952 269.046 138.165 274.829 131.311Z" stroke="white" stroke-width="4" stroke-linecap="round" stroke-linejoin="round"/>
<path d="M240.055 126.376C234.272 119.522 233.281 104.743 233.281 104.743C233.281 104.743 241.942 106.617 248.796 112.828C255.649 119.039 256.246 132.953 256.246 132.953C256.246 132.953 245.838 133.23 240.055 126.376Z" stroke="white" stroke-width="4" stroke-linecap="round" stroke-linejoin="round"/>
<path d="M275.892 80.9248C280.608 76.3762 280.48 64.9731 280.48 64.9731C280.48 64.9731 273.269 67.1583 268.098 73.0785C262.926 78.9987 262.508 84.7341 262.508 84.7341C262.508 84.7341 271.176 85.4733 275.892 80.9248Z" stroke="white" stroke-width="4" stroke-linecap="round" stroke-linejoin="round"/>
<path d="M244.862 94.0357C240.517 88.8634 240.055 77.4287 240.055 77.4287C240.055 77.4287 247.797 78.8596 252.947 83.5469C258.098 88.2343 258.388 99.4325 258.388 99.4325C258.388 99.4325 249.208 99.208 244.862 94.0357Z" stroke="white" stroke-width="4" stroke-linecap="round" stroke-linejoin="round"/>
<path d="M278.221 90.0933C278.221 90.0933 270.21 91.4135 264.529 98.843" stroke="white" stroke-width="4" stroke-linecap="round" stroke-linejoin="round"/>
<path d="M281.354 96.2208C281.354 96.2208 275.018 97.969 272.395 101.902" stroke="white" stroke-width="4" stroke-linecap="round" stroke-linejoin="round"/>
<path d="M240.929 139.705C240.929 139.705 237.651 144.513 236.559 149.976" stroke="white" stroke-width="4" stroke-linecap="round" stroke-linejoin="round"/>
<path d="M249.456 140.689L247.708 144.84" stroke="white" stroke-width="4" stroke-linecap="round" stroke-linejoin="round"/>
<path d="M232.573 135.741L230.12 139.519" stroke="white" stroke-width="4" stroke-linecap="round" stroke-linejoin="round"/>
</svg>
