<?xml version="1.0" encoding="utf-8"?>
<!-- Generator: Adobe Illustrator 24.1.2, SVG Export Plug-In . SVG Version: 6.00 Build 0)  -->
<svg version="1.1" id="Layer_1" xmlns="http://www.w3.org/2000/svg" xmlns:xlink="http://www.w3.org/1999/xlink" x="0px" y="0px"
	 viewBox="0 0 40 56" style="enable-background:new 0 0 40 56;" xml:space="preserve">
<style type="text/css">
	.st0{fill:#2FD58B;}
</style>
<g id="Layer_2_1_">
	<g id="Layer_1-2">
		<g>
			<path class="st0" d="M20,3c9.4,0,17,7.6,17,17c0,9.4-5.1,18-9.3,23.6c-2.9,3.8-5.9,6.8-7.7,8.5c-1.8-1.7-4.8-4.6-7.7-8.5
				C8.1,38,3,29.4,3,20C3,10.6,10.6,3,20,3 M20,29.4c5.2,0,9.4-4.2,9.4-9.4s-4.2-9.4-9.4-9.4s-9.4,4.2-9.4,9.4S14.8,29.4,20,29.4
				 M20,0C9,0,0,9,0,20c0,20,20,36,20,36s20-16,20-36C40,9,31,0,20,0L20,0z M20,26.4c-3.5,0-6.4-2.9-6.4-6.4s2.9-6.4,6.4-6.4
				s6.4,2.9,6.4,6.4S23.5,26.4,20,26.4L20,26.4z"/>
		</g>
	</g>
</g>
</svg>
