<svg width="33" height="33" viewBox="0 0 33 33" fill="none" xmlns="http://www.w3.org/2000/svg">
<path d="M28.6116 12.1957V5.08948C28.6116 4.56371 28.4029 4.06024 28.0313 3.68805L25.2284 0.885808C24.8569 0.514239 24.3528 0.305542 23.827 0.305542H6.81289C5.71862 0.305542 4.83119 1.19297 4.83119 2.28724V12.1957C2.64204 12.1957 0.867798 13.97 0.867798 16.1591V23.0951C0.867798 23.6425 1.3112 24.0859 1.85865 24.0859H4.83119V30.031C4.83119 31.1253 5.71862 32.0127 6.81289 32.0127H26.6299C27.7241 32.0127 28.6116 31.1253 28.6116 30.031V24.0859H31.5841C32.1315 24.0859 32.5749 23.6425 32.5749 23.0951V16.1591C32.5749 13.97 30.8007 12.1957 28.6116 12.1957ZM24.6482 28.0493H8.79459V22.1042H24.6482V28.0493ZM24.6482 14.1774H8.79459V4.26894H20.6848V7.24148C20.6848 7.78893 21.1282 8.23233 21.6756 8.23233H24.6482V14.1774ZM27.6207 18.6362C26.8002 18.6362 26.1344 17.9705 26.1344 17.15C26.1344 16.3288 26.8002 15.6637 27.6207 15.6637C28.4413 15.6637 29.107 16.3288 29.107 17.15C29.107 17.9705 28.4413 18.6362 27.6207 18.6362Z" fill="#C2E088"/>
</svg>
