<svg width="404" height="203" viewBox="0 0 404 203" fill="none" xmlns="http://www.w3.org/2000/svg">
<path d="M49.3256 49.3596V171.502C49.3256 171.502 65.7468 176.523 99 176.523C132.253 176.523 148.675 171.502 148.675 171.502V49.3596" stroke="white" stroke-width="4" stroke-linecap="round" stroke-linejoin="round"/>
<path d="M99.276 58.8067C69.6383 58.8067 49.6016 52.9626 49.6016 52.9626L49.3256 49.1944C49.3256 49.1944 66.1642 43.7791 99 43.7791C131.836 43.7791 148.675 49.1944 148.675 49.1944L148.121 52.9626C148.121 52.9626 128.914 58.8067 99.276 58.8067Z" fill="#171717" stroke="white" stroke-width="4" stroke-linecap="round" stroke-linejoin="round"/>
<path d="M67.3735 30.9077V34.6147" stroke="white" stroke-width="4" stroke-linecap="round" stroke-linejoin="round"/>
<path d="M90.9061 25.0591L92.3728 28.4636" stroke="white" stroke-width="4" stroke-linecap="round" stroke-linejoin="round"/>
<path d="M111.621 33.0259L109.713 36.2041" stroke="white" stroke-width="4" stroke-linecap="round" stroke-linejoin="round"/>
<path d="M130.655 28.4636L134.226 29.4581" stroke="white" stroke-width="4" stroke-linecap="round" stroke-linejoin="round"/>
<path d="M83.3807 50.041L86.9519 51.0355" stroke="white" stroke-width="4" stroke-linecap="round" stroke-linejoin="round"/>
<path d="M115.957 52.1997L116.362 55.8845" stroke="white" stroke-width="4" stroke-linecap="round" stroke-linejoin="round"/>
<path d="M129.404 47.3052L127.59 50.5383" stroke="white" stroke-width="4" stroke-linecap="round" stroke-linejoin="round"/>
<path d="M138.148 38.1743L141.288 36.2041" stroke="white" stroke-width="4" stroke-linecap="round" stroke-linejoin="round"/>
<path d="M59.3718 66.5283H138.628V88.2605H110.519C110.519 88.2605 108.612 85.6069 104.941 85.5349C101.27 85.463 99 88.2605 99 88.2605H59.3718V66.5283Z" fill="#171717" stroke="white" stroke-width="4" stroke-linecap="round" stroke-linejoin="round"/>
<path d="M60.8312 160.674H131.808" stroke="white" stroke-width="4" stroke-linecap="round" stroke-linejoin="round"/>
<path d="M60.8312 150.039H99" stroke="white" stroke-width="4" stroke-linecap="round" stroke-linejoin="round"/>
<path d="M60.3664 141.177L91.7408 114.994" stroke="white" stroke-width="4" stroke-linecap="round" stroke-linejoin="round"/>
<ellipse cx="99.0966" cy="111.869" rx="7.45718" ry="6.88436" stroke="white" stroke-width="4" stroke-linecap="round" stroke-linejoin="round"/>
<path d="M103.704 106.191C103.704 106.191 113.861 96.2593 122.438 94.6793C131.015 93.0992 139.141 100.322 130.789 104.385C122.438 108.448 106.864 110.705 106.864 110.705" stroke="white" stroke-width="4" stroke-linecap="round" stroke-linejoin="round"/>
<path d="M107.576 111.658C107.576 111.658 121.77 111.086 129.198 115.657C136.626 120.228 137.823 131.033 128.9 128.457C119.977 125.881 105.207 116.847 105.207 116.847" stroke="white" stroke-width="4" stroke-linecap="round" stroke-linejoin="round"/>
<path d="M90.5178 108.332C90.5178 108.332 77.8483 103.148 69.9466 104.977C62.0449 106.805 58.1423 116.487 66.8734 117.008C75.6044 117.529 89.7008 113.652 89.7008 113.652" stroke="white" stroke-width="4" stroke-linecap="round" stroke-linejoin="round"/>
<path d="M91.5497 108.177C86.527 105.781 76.2606 99.8098 75.3759 95.1029C74.27 89.2193 85.7437 86.441 89.1996 89.5462C91.9644 92.0303 95.2283 99.4487 96.749 103.534" stroke="white" stroke-width="4" stroke-linecap="round" stroke-linejoin="round"/>
<path d="M96.8137 104.364C96.2326 100.155 97.4491 93.0157 100.078 88.0194C102.707 83.023 114.815 87.0031 111.217 94.2016C107.619 101.4 103.607 105.634 103.607 105.634" stroke="white" stroke-width="4" stroke-linecap="round" stroke-linejoin="round"/>
<path d="M90.88 116.849C90.88 116.849 79.8051 125.87 78.5173 132.792C77.2295 139.713 86.3409 145.377 90.5858 138.379C94.8306 131.382 96.444 118.877 96.444 118.877" stroke="white" stroke-width="4" stroke-linecap="round" stroke-linejoin="round"/>
<path d="M98.5486 120.753C98.5486 120.753 98.2122 135.033 102.637 140.509C107.063 145.984 117.288 142.737 114.726 134.964C112.164 127.191 103.705 117.84 103.705 117.84" stroke="white" stroke-width="4" stroke-linecap="round" stroke-linejoin="round"/>
<path d="M259.474 42.5818L241.419 163.382C241.419 163.382 256.917 170.775 289.805 175.691C322.693 180.606 339.676 178.068 339.676 178.068L357.731 57.2677" stroke="white" stroke-width="4" stroke-linecap="round" stroke-linejoin="round"/>
<path d="M307.479 59.3088C278.167 54.9277 259.214 46.186 259.214 46.186L259.498 42.4183C259.498 42.4183 276.952 39.5516 309.428 44.4055C341.903 49.2593 357.756 57.1043 357.756 57.1043L356.652 60.7494C356.652 60.7494 336.791 63.6899 307.479 59.3088Z" fill="#171717" stroke="white" stroke-width="4" stroke-linecap="round" stroke-linejoin="round"/>
<path d="M278.644 27.3667L280.91 30.3002" stroke="white" stroke-width="4" stroke-linecap="round" stroke-linejoin="round"/>
<path d="M304.15 24.7053L305.177 28.2675" stroke="white" stroke-width="4" stroke-linecap="round" stroke-linejoin="round"/>
<path d="M322.935 35.3181L321.706 38.8155" stroke="white" stroke-width="4" stroke-linecap="round" stroke-linejoin="round"/>
<path d="M341.069 30.9475L342.313 34.4395" stroke="white" stroke-width="4" stroke-linecap="round" stroke-linejoin="round"/>
<path d="M293.749 44.4832L295.744 47.6075" stroke="white" stroke-width="4" stroke-linecap="round" stroke-linejoin="round"/>
<path d="M323.953 52.24L323.809 55.9442" stroke="white" stroke-width="4" stroke-linecap="round" stroke-linejoin="round"/>
<path d="M338.976 50.387L336.705 53.3164" stroke="white" stroke-width="4" stroke-linecap="round" stroke-linejoin="round"/>
<path d="M348.836 41.6572L352.509 42.1572" stroke="white" stroke-width="4" stroke-linecap="round" stroke-linejoin="round"/>
<path d="M266.872 61.0469L345.258 72.7627L342.045 94.2562L314.245 90.101C314.245 90.101 312.751 87.1946 309.131 86.5808C305.511 85.9669 302.852 88.3983 302.852 88.3983L263.659 82.5403L266.872 61.0469Z" fill="#171717" stroke="white" stroke-width="4" stroke-linecap="round" stroke-linejoin="round"/>
<path d="M254.398 154.374L324.596 164.866" stroke="white" stroke-width="4" stroke-linecap="round" stroke-linejoin="round"/>
<path d="M255.971 143.855L293.72 149.498" stroke="white" stroke-width="4" stroke-linecap="round" stroke-linejoin="round"/>
<path d="M256.821 135.022L291.721 113.765" stroke="white" stroke-width="4" stroke-linecap="round" stroke-linejoin="round"/>
<ellipse cx="299.458" cy="111.761" rx="7.45718" ry="6.88436" transform="rotate(8.50072 299.458 111.761)" stroke="white" stroke-width="4" stroke-linecap="round" stroke-linejoin="round"/>
<path d="M304.854 106.827C304.854 106.827 316.367 98.5059 325.084 98.2111C333.8 97.9163 340.769 106.261 331.909 109.045C323.049 111.828 307.312 111.759 307.312 111.759" stroke="white" stroke-width="4" stroke-linecap="round" stroke-linejoin="round"/>
<path d="M307.875 112.807C307.875 112.807 321.998 114.339 328.669 119.957C335.339 125.576 334.925 136.44 326.481 132.573C318.037 128.707 304.765 117.588 304.765 117.588" stroke="white" stroke-width="4" stroke-linecap="round" stroke-linejoin="round"/>
<path d="M291.496 106.995C291.496 106.995 279.732 99.9959 271.647 100.636C263.562 101.276 258.271 110.275 266.829 112.081C275.387 113.887 289.902 112.136 289.902 112.136" stroke="white" stroke-width="4" stroke-linecap="round" stroke-linejoin="round"/>
<path d="M292.54 106.995C287.926 103.882 278.655 96.4593 278.476 91.6733C278.252 85.6909 290.01 84.6391 292.969 88.2211C295.337 91.0866 297.468 98.9059 298.368 103.172" stroke="white" stroke-width="4" stroke-linecap="round" stroke-linejoin="round"/>
<path d="M298.309 104.002C298.357 99.7533 300.615 92.8719 303.954 88.319C307.293 83.7662 318.679 89.4923 314.057 96.0799C309.434 102.667 304.84 106.262 304.84 106.262" stroke="white" stroke-width="4" stroke-linecap="round" stroke-linejoin="round"/>
<path d="M290.596 115.472C290.596 115.472 278.309 122.758 276.012 129.413C273.715 136.068 281.889 143.016 287.122 136.723C292.354 130.429 295.799 118.3 295.799 118.3" stroke="white" stroke-width="4" stroke-linecap="round" stroke-linejoin="round"/>
<path d="M297.603 120.467C297.603 120.467 295.159 134.541 298.726 140.61C302.293 146.68 312.886 144.98 311.501 136.914C310.116 128.847 303.133 118.349 303.133 118.349" stroke="white" stroke-width="4" stroke-linecap="round" stroke-linejoin="round"/>
</svg>
