<svg width="32" height="33" viewBox="0 0 32 33" fill="none" xmlns="http://www.w3.org/2000/svg">
<path d="M7.65393 8.92484C7.65393 8.83584 7.84193 8.76884 7.95093 8.76884C9.09628 8.72039 10.2426 8.69772 11.3889 8.70084C15.0869 8.70084 16.5239 10.7268 16.5239 13.3208C16.5239 16.7118 14.0659 18.1648 11.0549 18.1648C10.5449 18.1648 10.3729 18.1388 10.0189 18.1388V23.2638C10.0189 23.3728 9.97693 23.4198 9.86793 23.4198H7.80493C7.69593 23.4198 7.65393 23.3778 7.65393 23.2688V8.92484ZM10.0189 16.0088C10.3259 16.0298 10.5709 16.0298 11.1019 16.0298C12.6589 16.0298 14.1279 15.4778 14.1279 13.3688C14.1279 11.6758 13.0759 10.8168 11.2949 10.8168C10.7689 10.8168 10.2639 10.8378 10.0189 10.8588V16.0088ZM21.4979 14.4198C20.4409 14.4198 20.0869 14.9508 20.0869 15.3888C20.0869 15.8728 20.3269 16.2018 21.7379 16.9308C23.8269 17.9468 24.4879 18.9098 24.4879 20.3418C24.4879 22.4718 22.8579 23.6178 20.6599 23.6178C19.4929 23.6178 18.4989 23.3728 17.9259 23.0448C17.8429 23.0028 17.8219 22.9358 17.8219 22.8258V20.8678C17.8219 20.7378 17.8849 20.6908 17.9729 20.7588C18.771 21.2778 19.703 21.553 20.6549 21.5508C21.7119 21.5508 22.1499 21.1128 22.1499 20.5148C22.1499 20.0308 21.8429 19.6138 20.5039 18.9108C18.6079 18.0048 17.8159 17.0828 17.8159 15.5408C17.8159 13.8218 19.1599 12.3948 21.4879 12.3948C22.6339 12.3948 23.4409 12.5718 23.8839 12.7648C23.9929 12.8328 24.0139 12.9418 24.0139 13.0308V14.8588C24.0139 14.9678 23.9459 15.0358 23.8159 14.9888C23.2219 14.6398 22.3469 14.4158 21.4929 14.4158L21.4979 14.4198Z" fill="#C2E088"/>
<path fill-rule="evenodd" clip-rule="evenodd" d="M9.65393 23.2688L9.65392 23.2638ZM15.8326 15.9946C15.0018 17.323 13.4977 18.0023 11.7389 18.1388C11.5148 18.1563 11.2865 18.1648 11.0549 18.1648C10.7767 18.1648 10.5991 18.1571 10.4376 18.1501C10.3031 18.1442 10.1798 18.1388 10.0189 18.1388V23.2638C10.0189 23.3728 9.97693 23.4198 9.86793 23.4198H7.80493C7.69593 23.4198 7.65393 23.3778 7.65393 23.2688V8.92484C7.65393 8.83584 7.84193 8.76884 7.95093 8.76884C9.09628 8.72039 10.2426 8.69772 11.3889 8.70084C14.6441 8.70084 16.1473 10.2706 16.4607 12.4158C16.4869 12.5956 16.5048 12.7794 16.5147 12.9666C16.5152 12.9762 16.5157 12.9858 16.5162 12.9954C16.5214 13.1028 16.5239 13.2113 16.5239 13.3208C16.5239 14.1836 16.3648 14.921 16.0779 15.5408C16.0044 15.6998 15.9224 15.851 15.8326 15.9946ZM18.0925 14.2566C17.9104 14.6501 17.8159 15.0852 17.8159 15.5408C17.8159 15.8339 17.8445 16.1046 17.9039 16.3571C18.1569 17.4328 18.9683 18.1771 20.5039 18.9108C21.8429 19.6138 22.1499 20.0308 22.1499 20.5148C22.1499 21.1128 21.7119 21.5508 20.6549 21.5508C20.3746 21.5515 20.0959 21.528 19.8219 21.4814C19.7864 21.4754 19.7509 21.4689 19.7155 21.4621C19.1647 21.3558 18.6344 21.1554 18.1486 20.8678C18.0893 20.8328 18.0308 20.7965 17.9729 20.7588C17.8849 20.6908 17.8219 20.7378 17.8219 20.8678V22.8258C17.8219 22.8783 17.8267 22.9209 17.8407 22.9557C17.856 22.994 17.8825 23.0229 17.9259 23.0448C18.4989 23.3728 19.4929 23.6178 20.6599 23.6178C22.8579 23.6178 24.4879 22.4718 24.4879 20.3418C24.4879 18.9098 23.8269 17.9468 21.7379 16.9308C20.9095 16.5028 20.4847 16.2127 20.2752 15.9481C20.2738 15.9464 20.2725 15.9447 20.2711 15.943C20.1271 15.7589 20.0869 15.5868 20.0869 15.3888C20.0869 14.952 20.4391 14.4226 21.4897 14.4199L21.4929 14.4198L21.4979 14.4198L21.4929 14.4158L21.4979 14.4158L21.5011 14.4159C21.6721 14.4161 21.8438 14.4254 22.0139 14.4428C22.0305 14.4445 22.047 14.4463 22.0635 14.4481C22.6122 14.5095 23.1415 14.6553 23.5697 14.8588C23.6561 14.8999 23.7384 14.9433 23.8159 14.9888C23.9459 15.0358 24.0139 14.9678 24.0139 14.8588V13.0308C24.0139 13.0238 24.0138 13.0166 24.0135 13.0094C24.0115 12.961 24.0022 12.9085 23.9759 12.8606C23.9562 12.8248 23.9269 12.7916 23.8839 12.7648C23.4409 12.5718 22.6339 12.3948 21.4879 12.3948C21.3233 12.3948 21.1636 12.402 21.009 12.4158C19.9083 12.5146 19.0632 12.9544 18.5198 13.5907C18.346 13.7942 18.2031 14.0177 18.0925 14.2566ZM12.0189 15.9548C11.8842 15.9789 11.7463 15.9967 11.6064 16.0088C11.4405 16.0233 11.2717 16.0298 11.1019 16.0298C10.5709 16.0298 10.3259 16.0298 10.0189 16.0088V10.8588C10.2639 10.8378 10.7689 10.8168 11.2949 10.8168C11.5224 10.8168 11.7381 10.8309 11.9411 10.8588C11.9673 10.8624 11.9932 10.8663 12.0189 10.8704C13.3574 11.0819 14.1279 11.92 14.1279 13.3688C14.1279 15.0539 13.1901 15.745 12.0189 15.9548Z" fill="#C2E088"/>
<path fill-rule="evenodd" clip-rule="evenodd" d="M25.9244 2.30554H6.21729C4.00815 2.30554 2.21729 4.0964 2.21729 6.30554V26.0127C2.21729 28.2218 4.00815 30.0127 6.21729 30.0127H25.9244C28.1336 30.0127 29.9244 28.2218 29.9244 26.0127V6.30554C29.9244 4.0964 28.1336 2.30554 25.9244 2.30554ZM6.21729 0.305542C2.90358 0.305542 0.217285 2.99183 0.217285 6.30554V26.0127C0.217285 29.3264 2.90358 32.0127 6.21729 32.0127H25.9244C29.2381 32.0127 31.9244 29.3264 31.9244 26.0127V6.30554C31.9244 2.99183 29.2381 0.305542 25.9244 0.305542H6.21729Z" fill="#C2E088"/>
</svg>
