<svg width="51" height="71" viewBox="0 0 51 71" fill="none" xmlns="http://www.w3.org/2000/svg">
<path fill-rule="evenodd" clip-rule="evenodd" d="M0.8125 29.8156C0.8125 29.0084 1.46687 28.354 2.27407 28.354H10.58C11.6846 28.354 12.58 29.2494 12.58 30.354V30.354C12.58 31.4586 11.6846 32.354 10.58 32.354H4.8125V66.3821H35.0242L38.212 70.3821H2.3691C1.50941 70.3821 0.8125 69.6852 0.8125 68.8255V29.8156Z" fill="#C2E088"/>
<path fill-rule="evenodd" clip-rule="evenodd" d="M42.4641 67.7489C41.7308 46.6981 32.0469 36.8502 8.93896 36.8502C8.93896 60.9904 18.1954 69.7391 39.8273 70.3821L33.0687 63.6235H22.2022C21.1732 63.6235 20.339 62.7893 20.339 61.7602C20.339 60.7312 21.1732 59.897 22.2022 59.897H29.3422L23.8244 54.3792H16.6845C15.6555 54.3792 14.8213 53.545 14.8213 52.516C14.8213 51.4869 15.6555 50.6527 16.6845 50.6527H20.0979L14.1223 44.6771C13.3946 43.9494 13.3946 42.7697 14.1223 42.0421C14.8499 41.3144 16.0297 41.3144 16.7573 42.0421L22.5673 47.8521V44.6337C22.5673 43.6047 23.4016 42.7705 24.4306 42.7705C25.4596 42.7705 26.2938 43.6047 26.2938 44.6337V51.5786L32.098 57.3827V50.4301C32.098 49.4011 32.9322 48.5669 33.9612 48.5669C34.9903 48.5669 35.8245 49.4011 35.8245 50.4301V61.1092L42.4641 67.7489Z" fill="url(#paint0_linear_404_294)"/>
<path d="M30.0382 9.33727L37.3718 2.00366L48.1792 12.811L40.8456 20.1446L30.0382 9.33727Z" stroke="#2FD58B" stroke-width="4" stroke-linecap="round" stroke-linejoin="round"/>
<path d="M19.8097 19.5658L30.0382 9.33728L40.8456 20.1447L30.6171 30.3731L19.8097 19.5658Z" stroke="#2FD58B" stroke-width="4" stroke-linecap="round" stroke-linejoin="round"/>
<path d="M19.8098 19.5657L30.6172 30.3731L17.7882 32.4436L19.8098 19.5657Z" stroke="#2FD58B" stroke-width="4" stroke-linecap="round" stroke-linejoin="round"/>
<path d="M18.5186 28.0959L22.0869 31.6643" stroke="#2FD58B" stroke-width="4" stroke-linecap="round"/>
<path d="M35.4419 14.741L28.7854 21.3975L25.217 24.9658" stroke="#2FD58B" stroke-width="4" stroke-linecap="round"/>
<defs>
<linearGradient id="paint0_linear_404_294" x1="8.93896" y1="36.8502" x2="30.8205" y2="59.8276" gradientUnits="userSpaceOnUse">
<stop stop-color="#2FD58B"/>
<stop offset="1" stop-color="#C2E088"/>
</linearGradient>
</defs>
</svg>
