<svg xmlns="http://www.w3.org/2000/svg" viewBox="0 0 39.66 50"><defs><style>.cls-1{fill:#2fd58b;}</style></defs><g id="Layer_2" data-name="Layer 2"><g id="Layer_1-2" data-name="Layer 1"><path class="cls-1" d="M31.92,20.16,34.32,45h-29l2.4-24.84H31.92m2.74-5H5a1.87,1.87,0,0,0-1.94,1.56L0,48.16A1.81,1.81,0,0,0,2,50H37.71a1.81,1.81,0,0,0,1.94-1.84l-3-31.44a1.87,1.87,0,0,0-2-1.56Z"/><path class="cls-1" d="M24.83,5V15.16h-10V5h10M28,0H11.64c-1,0-1.81,1.09-1.81,2.43v15.3c0,1.34.81,2.43,1.81,2.43H28c1,0,1.81-1.09,1.81-2.43V2.43C29.83,1.09,29,0,28,0Z"/></g></g></svg>