<svg width="101" height="101" viewBox="0 0 101 101" fill="none" xmlns="http://www.w3.org/2000/svg">
<rect x="2.27856" y="2.40649" width="96.7817" height="96.7817" rx="8.5" stroke="white" stroke-width="3"/>
<path fill-rule="evenodd" clip-rule="evenodd" d="M76.2859 32.6933C79.195 32.3447 81.9622 31.5735 84.5381 30.432L84.5319 30.4413C82.6035 33.3254 80.1769 35.8429 77.3656 37.876C77.3934 38.493 77.4088 39.1161 77.4088 39.7331C77.4088 58.7241 62.9558 80.621 36.5178 80.621C28.7078 80.6297 21.0606 78.388 14.4913 74.1642C15.6299 74.2981 16.7754 74.365 17.9218 74.3647C24.3937 74.3743 30.6806 72.2065 35.7713 68.2103C32.7725 68.1553 29.8659 67.1639 27.4585 65.375C25.0511 63.586 23.2634 61.089 22.3456 58.2336C24.4999 58.6441 26.7194 58.5597 28.8363 57.9868C25.5835 57.3294 22.6582 55.567 20.5569 52.9984C18.4556 50.4298 17.3077 47.2133 17.3079 43.8947V43.7096C19.3035 44.8189 21.5351 45.4355 23.8171 45.5082C21.8494 44.1941 20.2365 42.4146 19.1215 40.3277C18.0064 38.2408 17.4237 35.9109 17.4251 33.5447C17.4251 30.9164 18.1347 28.4484 19.3686 26.3198C22.9775 30.7595 27.4796 34.3908 32.5828 36.978C37.6859 39.5652 43.276 41.0504 48.9903 41.3373C48.267 38.2547 48.5816 35.0195 49.8854 32.134C51.1891 29.2485 53.4091 26.8742 56.2005 25.3797C58.992 23.8851 62.1987 23.354 65.323 23.8687C68.4472 24.3835 71.3141 25.9153 73.4786 28.2263C76.6972 27.5945 79.7837 26.4154 82.6038 24.7403C81.5332 28.0704 79.2875 30.8972 76.2859 32.6933ZM65.7229 29.3177C64.9855 29.7349 64.7259 30.6709 65.1431 31.4084L66.2223 33.316C66.6395 34.0534 67.5756 34.313 68.313 33.8958C69.0504 33.4786 69.31 32.5426 68.8928 31.8052L67.8136 29.8976C67.3964 29.1601 66.4604 28.9005 65.7229 29.3177Z" fill="white"/>
</svg>
