<svg width="101" height="101" viewBox="0 0 101 101" fill="none" xmlns="http://www.w3.org/2000/svg">
<rect x="2.27856" y="2.32434" width="96.7817" height="96.7817" rx="8.5" stroke="#C2E088" stroke-width="3"/>
<path d="M84.5381 30.3498C81.9621 31.4912 79.195 32.2624 76.2859 32.611C79.2875 30.8149 81.5332 27.9881 82.6038 24.658C79.7837 26.3331 76.6972 27.5122 73.4786 28.144C71.3141 25.833 68.4472 24.3012 65.323 23.7865C62.1987 23.2717 58.992 23.8029 56.2005 25.2974C53.4091 26.7919 51.1891 29.1663 49.8854 32.0517C48.5816 34.9372 48.267 38.1724 48.9903 41.255C43.276 40.9681 37.6859 39.4829 32.5828 36.8957C27.4796 34.3085 22.9775 30.6773 19.3686 26.2375C18.1347 28.3661 17.4251 30.8341 17.4251 33.4625C17.4237 35.8286 18.0064 38.1585 19.1215 40.2454C20.2365 42.3324 21.8494 44.1118 23.8171 45.4259C21.5351 45.3533 19.3035 44.7367 17.3079 43.6274V43.8125C17.3077 47.1311 18.4556 50.3475 20.5569 52.9161C22.6582 55.4847 25.5835 57.2472 28.8363 57.9045C26.7194 58.4774 24.4999 58.5618 22.3456 58.1513C23.2634 61.0067 25.0511 63.5037 27.4585 65.2927C29.8659 67.0816 32.7725 68.073 35.7713 68.128C30.6806 72.1243 24.3937 74.292 17.9218 74.2824C16.7754 74.2828 15.6299 74.2158 14.4913 74.0819C21.0606 78.3058 28.7078 80.5474 36.5178 80.5387C62.9558 80.5387 77.4088 58.6418 77.4088 39.6509C77.4088 39.0339 77.3934 38.4107 77.3656 37.7937C80.1769 35.7607 82.6035 33.2431 84.5319 30.359L84.5381 30.3498Z" stroke="#C2E088" stroke-width="3" stroke-linejoin="round"/>
</svg>
