<svg width="404" height="203" viewBox="0 0 404 203" fill="none" xmlns="http://www.w3.org/2000/svg">
<path d="M66.6358 99.9672L104.205 55.6822C104.205 55.6822 85.0171 63.1431 75.7062 74.1183C66.3953 85.0936 66.6358 99.9672 66.6358 99.9672Z" stroke="white" stroke-width="4" stroke-linecap="round" stroke-linejoin="round"/>
<path d="M158.67 176.358L166.596 140.704H109.739L117.842 176.358C117.842 176.358 125.011 178.872 138.256 178.872C151.501 178.872 158.67 176.358 158.67 176.358Z" fill="#171717" stroke="white" stroke-width="4" stroke-linecap="round" stroke-linejoin="round"/>
<path d="M170.498 139.904L171.817 128.005C171.817 128.005 167.541 133.952 138.256 133.952C108.97 133.952 104.646 127.244 104.646 127.244L106.013 139.904C106.013 139.904 118.708 143.217 138.256 143.217C157.804 143.217 170.498 139.904 170.498 139.904Z" fill="#171717" stroke="white" stroke-width="4" stroke-linecap="round" stroke-linejoin="round"/>
<path d="M100.219 106.352C102.942 95.1947 120.881 85.1142 135.856 85.1911C150.832 85.268 167.97 91.1934 174.216 101.582C180.463 111.97 177.233 125.294 168.161 130.135C159.09 134.977 119.573 135.843 109.824 130.135C100.076 124.428 97.4961 117.51 100.219 106.352Z" stroke="white" stroke-width="4" stroke-linecap="round" stroke-linejoin="round"/>
<ellipse cx="138.393" cy="65.7414" rx="23.521" ry="19.4894" stroke="white" stroke-width="4" stroke-linecap="round" stroke-linejoin="round"/>
<ellipse cx="138.393" cy="35.8752" rx="12.5235" ry="10.3769" transform="rotate(9.81104 138.393 35.8752)" stroke="white" stroke-width="4" stroke-linecap="round" stroke-linejoin="round"/>
<path d="M108.645 174.632C105.233 170.413 97.4398 163.874 93.5683 171.468C89.6967 179.062 102.006 176.742 108.645 174.632Z" stroke="white" stroke-width="4" stroke-linecap="round" stroke-linejoin="round"/>
<path d="M174.361 172.729C170.191 173.027 169.769 176.948 170.08 178.872H179.2C179.324 176.7 178.53 172.432 174.361 172.729Z" stroke="white" stroke-width="4" stroke-linecap="round" stroke-linejoin="round"/>
<path d="M87.5387 128.162C83.8513 137.282 95.3914 138.655 95.3914 138.655C95.3914 138.655 97.4389 127.045 87.5387 128.162Z" stroke="white" stroke-width="4" stroke-linecap="round" stroke-linejoin="round"/>
<path d="M67.1878 100.435L104.757 56.1504C104.757 56.1504 100.523 76.2979 91.2125 87.2731C81.9017 98.2484 67.1878 100.435 67.1878 100.435Z" stroke="white" stroke-width="4" stroke-linecap="round" stroke-linejoin="round"/>
<path d="M67.2853 115.597L67.5986 100.625L60.1091 111.874L59.1599 116.909L35.8725 151.885L43.2257 156.781L67.2853 115.597Z" fill="#171717" stroke="white" stroke-width="4" stroke-linecap="round" stroke-linejoin="round"/>
<path d="M52.4624 103.022L67.1825 100.272L57.3047 109.495L52.4923 111.252L21.7789 139.929L15.7501 133.472L52.4624 103.022Z" fill="#171717" stroke="white" stroke-width="4" stroke-linecap="round" stroke-linejoin="round"/>
<circle cx="67.0321" cy="100.449" r="4.8697" transform="rotate(40.3097 67.0321 100.449)" fill="#171717" stroke="white" stroke-width="4" stroke-linecap="round" stroke-linejoin="round"/>
<path d="M360.67 176.358L368.596 140.704H311.739L319.842 176.358C319.842 176.358 327.011 178.872 340.256 178.872C353.501 178.872 360.67 176.358 360.67 176.358Z" fill="#171717" stroke="white" stroke-width="4" stroke-linecap="round" stroke-linejoin="round"/>
<path d="M372.498 139.904L373.817 128.005C373.817 128.005 369.541 133.952 340.256 133.952C310.97 133.952 306.646 127.244 306.646 127.244L308.013 139.904C308.013 139.904 320.708 143.217 340.256 143.217C359.804 143.217 372.498 139.904 372.498 139.904Z" fill="#171717" stroke="white" stroke-width="4" stroke-linecap="round" stroke-linejoin="round"/>
<path d="M302.219 106.352C304.942 95.1947 322.881 85.1142 337.856 85.1911C352.832 85.268 369.97 91.1934 376.216 101.582C382.463 111.97 379.233 125.294 370.161 130.135C361.09 134.977 321.573 135.843 311.824 130.135C302.076 124.428 299.496 117.51 302.219 106.352Z" stroke="white" stroke-width="4" stroke-linecap="round" stroke-linejoin="round"/>
<ellipse cx="340.393" cy="65.7414" rx="23.521" ry="19.4894" stroke="white" stroke-width="4" stroke-linecap="round" stroke-linejoin="round"/>
<ellipse cx="340.393" cy="35.8752" rx="12.5235" ry="10.3769" transform="rotate(9.81104 340.393 35.8752)" stroke="white" stroke-width="4" stroke-linecap="round" stroke-linejoin="round"/>
<path d="M310.645 174.632C307.233 170.413 299.44 163.874 295.568 171.468C291.697 179.062 304.006 176.742 310.645 174.632Z" stroke="white" stroke-width="4" stroke-linecap="round" stroke-linejoin="round"/>
<path d="M376.361 172.729C372.191 173.027 371.769 176.948 372.08 178.872H381.2C381.324 176.7 380.53 172.432 376.361 172.729Z" stroke="white" stroke-width="4" stroke-linecap="round" stroke-linejoin="round"/>
<path d="M290.414 134.398C282.926 140.777 292.522 147.334 292.522 147.334C292.522 147.334 299.708 137.987 290.414 134.398Z" stroke="white" stroke-width="4" stroke-linecap="round" stroke-linejoin="round"/>
<path d="M266.922 98.354L286.271 43.5981C286.271 43.5981 270.995 57.3992 266.199 70.9695C261.404 84.5398 266.922 98.354 266.922 98.354Z" stroke="white" stroke-width="4" stroke-linecap="round" stroke-linejoin="round"/>
<path d="M269.202 98.8779L304.549 52.7997C304.549 52.7997 301.31 73.131 292.55 84.5507C283.79 95.9703 269.202 98.8779 269.202 98.8779Z" stroke="white" stroke-width="4" stroke-linecap="round" stroke-linejoin="round"/>
<path d="M272.181 115.101L267.545 100.862L264.179 113.95L264.942 119.016L254.478 159.713L263.033 161.912L272.181 115.101Z" fill="#171717" stroke="white" stroke-width="4" stroke-linecap="round" stroke-linejoin="round"/>
<path d="M252.183 103.915L266.637 100.002L257.525 109.982L252.868 112.117L224.536 143.149L218.012 137.193L252.183 103.915Z" fill="#171717" stroke="white" stroke-width="4" stroke-linecap="round" stroke-linejoin="round"/>
<circle cx="267.622" cy="99.4279" r="4.8697" transform="rotate(29.6386 267.622 99.4279)" fill="#171717" stroke="white" stroke-width="4" stroke-linecap="round" stroke-linejoin="round"/>
<path d="M308.791 82.1481C306.536 80.3418 306.059 75.5787 306.059 75.5787C306.059 75.5787 310.108 74.8494 311.98 75.8977C313.852 76.946 315.122 82.1689 315.122 82.1689C315.122 82.1689 311.046 83.9543 308.791 82.1481Z" stroke="white" stroke-width="4" stroke-linecap="round" stroke-linejoin="round"/>
</svg>
