<svg xmlns="http://www.w3.org/2000/svg" viewBox="0 0 40 49.3"><defs><style>.cls-1{fill:#2fd58b;}</style></defs><g id="Layer_2" data-name="Layer 2"><g id="Layer_1-2" data-name="Layer 1"><path class="cls-1" d="M20,6.37l15,15V44.3H5V21.37l15-15M20,0a1.69,1.69,0,0,0-1.2.5L.5,18.8A1.7,1.7,0,0,0,0,20V47.6a1.7,1.7,0,0,0,1.7,1.7H38.3A1.7,1.7,0,0,0,40,47.6V20a1.7,1.7,0,0,0-.5-1.2L21.2.5A1.69,1.69,0,0,0,20,0Z"/><path class="cls-1" d="M11.93,7.36l6.87,6.87a1.7,1.7,0,0,0,2.4,0l6.87-6.87L20,4.3Z"/><path class="cls-1" d="M37.53,18.84v7.08l-6.72,6.72a1.14,1.14,0,0,1-1.62,0L25,28.45l-4.19,4.19a1.14,1.14,0,0,1-1.62,0L15,28.45l-4.19,4.19a1.14,1.14,0,0,1-1.62,0L2.45,25.9V18.82L10,26.37l4.19-4.18a1.14,1.14,0,0,1,1.62,0L20,26.37l4.19-4.18a1.14,1.14,0,0,1,1.62,0L30,26.37Z"/></g></g></svg>