<svg xmlns="http://www.w3.org/2000/svg" viewBox="0 0 40 49.3"><defs><style>.cls-1{fill:#c2e088;}</style></defs><g id="Layer_2" data-name="Layer 2"><g id="Layer_1-2" data-name="Layer 1"><path class="cls-1" d="M7.37,20.2l7.08-6.78L17,16A4.2,4.2,0,0,0,23,16l2.91-2.91,7,6.84L30,22.83l-2.42-2.41a3.65,3.65,0,0,0-5.16,0L20,22.83l-2.42-2.41a3.65,3.65,0,0,0-5.16,0L10,22.83Z"/><path class="cls-1" d="M25.9,16.6l.39.38c-.22,0-.44-.08-.67-.1l.28-.28m0-7L21.2,14.23a1.69,1.69,0,0,1-2.4,0L14.49,9.92,3.8,20.17l6.2,6.2,4.19-4.18a1.13,1.13,0,0,1,1.62,0L20,26.37l4.19-4.18a1.13,1.13,0,0,1,1.62,0L30,26.37l6.46-6.46L25.85,9.58Z"/><path class="cls-1" d="M5,43.73V31.93L7.42,34.4a3.65,3.65,0,0,0,5.16,0L15,32l2.42,2.41a3.65,3.65,0,0,0,5.16,0L25,32l2.42,2.41a3.65,3.65,0,0,0,5.16,0l1.48-1.48V43.73Z"/><path class="cls-1" d="M25,35.52l.65.65A6.12,6.12,0,0,0,30,38a5.75,5.75,0,0,0,1.56-.2v3.46H7.45V37.42a6.17,6.17,0,0,0,6.9-1.25l.65-.65.65.65a6.16,6.16,0,0,0,8.7,0l.65-.65M2.45,25.9V46.23H36.56V26.89l-5.75,5.75a1.16,1.16,0,0,1-1.62,0L25,28.45l-4.19,4.19a1.16,1.16,0,0,1-1.62,0L15,28.45l-4.19,4.19a1.16,1.16,0,0,1-1.62,0L2.45,25.9Z"/><path class="cls-1" d="M20,6.37l15,15V44.3H5V21.37l15-15M20,0a1.69,1.69,0,0,0-1.2.5L.5,18.8A1.7,1.7,0,0,0,0,20V47.6a1.7,1.7,0,0,0,1.7,1.7H38.3A1.7,1.7,0,0,0,40,47.6V20a1.7,1.7,0,0,0-.5-1.2L21.2.5A1.69,1.69,0,0,0,20,0Z"/></g></g></svg>